<?xml version="1.0" encoding="UTF-8" standalone="no"?>
<svg width="583px" height="600px" viewBox="0 0 583 600" version="1.1" xmlns="http://www.w3.org/2000/svg" xmlns:xlink="http://www.w3.org/1999/xlink">
    <!-- Generator: Sketch 47.1 (45422) - http://www.bohemiancoding.com/sketch -->
    <title>il_Call Analytics &amp; Reporting: Knowledge Is Power</title>
    <desc>Created with Sketch.</desc>
    <defs>
        <linearGradient x1="100%" y1="92.337695%" x2="0%" y2="92.3376977%" id="linearGradient-1">
            <stop stop-color="#FFFFFF" offset="0%"></stop>
            <stop stop-color="#FFAF4B" offset="20.1478653%"></stop>
            <stop stop-color="#874DC5" offset="51.786617%"></stop>
            <stop stop-color="#D36AFF" offset="79.9065005%"></stop>
            <stop stop-color="#FFFFFF" stop-opacity="0" offset="100%"></stop>
        </linearGradient>
        <radialGradient cx="9.18173098%" cy="32.3634217%" fx="9.18173098%" fy="32.3634217%" r="162.137277%" gradientTransform="translate(0.091817,0.323634),scale(0.440842,1.000000),rotate(10.865537),translate(-0.091817,-0.323634)" id="radialGradient-2">
            <stop stop-color="#FFFFFF" offset="0%"></stop>
            <stop stop-color="#EDCAFE" offset="100%"></stop>
        </radialGradient>
        <linearGradient x1="-220.002815%" y1="-26.8806486%" x2="165.887104%" y2="114.611424%" id="linearGradient-3">
            <stop stop-color="#DBBADB" offset="0%"></stop>
            <stop stop-color="#D6C7E3" offset="100%"></stop>
        </linearGradient>
        <radialGradient cx="81.487%" cy="13.8931336%" fx="81.487%" fy="13.8931336%" r="114.397132%" gradientTransform="translate(0.814870,0.138931),scale(1.000000,0.385722),rotate(90.000000),translate(-0.814870,-0.138931)" id="radialGradient-4">
            <stop stop-color="#FFFFFF" offset="0%"></stop>
            <stop stop-color="#FAE6FF" offset="100%"></stop>
        </radialGradient>
        <linearGradient x1="41.8233959%" y1="75.6842301%" x2="224.461971%" y2="88.9807126%" id="linearGradient-5">
            <stop stop-color="#7243C0" offset="0%"></stop>
            <stop stop-color="#AC5FCF" offset="100%"></stop>
        </linearGradient>
        <path d="M3.25490132,58.8952642 L129.117154,0.742423693 C130.436999,0.132608624 131.506944,0.998810491 131.506944,2.67713971 L131.506944,119.167688 C131.506944,120.846018 130.436999,122.700925 129.117154,123.31074 L3.25490132,181.463581 C1.93505696,182.073396 0.865111701,181.207194 0.865111701,179.528865 L0.865111701,63.038316 C0.865111701,61.3599868 1.93505696,59.5050793 3.25490132,58.8952642 Z" id="path-6"></path>
        <filter x="-11.5%" y="-6.6%" width="123.0%" height="116.6%" filterUnits="objectBoundingBox" id="filter-7">
            <feOffset dx="0" dy="3" in="SourceAlpha" result="shadowOffsetOuter1"></feOffset>
            <feGaussianBlur stdDeviation="4.5" in="shadowOffsetOuter1" result="shadowBlurOuter1"></feGaussianBlur>
            <feComposite in="shadowBlurOuter1" in2="SourceAlpha" operator="out" result="shadowBlurOuter1"></feComposite>
            <feColorMatrix values="0 0 0 0 0.137254902   0 0 0 0 0.141176471   0 0 0 0 0.145098039  0 0 0 0.1 0" type="matrix" in="shadowBlurOuter1"></feColorMatrix>
        </filter>
        <path d="M19.457945,69.8341264 L163.974993,0.38634676 C165.126164,-0.166849629 166.059373,0.571375274 166.059373,2.03521823 L166.059373,66.6221297 C166.059373,68.0859726 165.126164,69.7211061 163.974993,70.2743025 L19.457945,139.722082 C18.3067735,140.275278 17.3735645,139.537054 17.3735645,138.073211 L17.3735645,120.628163 L0.426216626,114.653375 L17.3735645,89.4638899 L17.3735645,73.4862992 C17.3735645,72.0224563 18.3067735,70.3873228 19.457945,69.8341264 Z" id="path-8"></path>
        <filter x="-23.5%" y="-18.6%" width="131.4%" height="137.2%" filterUnits="objectBoundingBox" id="filter-9">
            <feOffset dx="-13" dy="0" in="SourceAlpha" result="shadowOffsetOuter1"></feOffset>
            <feGaussianBlur stdDeviation="6.5" in="shadowOffsetOuter1" result="shadowBlurOuter1"></feGaussianBlur>
            <feComposite in="shadowBlurOuter1" in2="SourceAlpha" operator="out" result="shadowBlurOuter1"></feComposite>
            <feColorMatrix values="0 0 0 0 0.625821674   0 0 0 0 0.217098377   0 0 0 0 0.782498937  0 0 0 0.201794611 0" type="matrix" in="shadowBlurOuter1"></feColorMatrix>
        </filter>
        <linearGradient x1="29.3413945%" y1="119.304558%" x2="83.882271%" y2="16.0908992%" id="linearGradient-10">
            <stop stop-color="#7243C0" offset="0%"></stop>
            <stop stop-color="#AC5FCF" offset="100%"></stop>
        </linearGradient>
        <path d="M19.457945,69.8341264 L163.974993,0.38634676 C165.126164,-0.166849629 166.059373,0.571375274 166.059373,2.03521823 L166.059373,66.6221297 C166.059373,68.0859726 165.126164,69.7211061 163.974993,70.2743025 L19.457945,139.722082 C18.3067735,140.275278 17.3735645,139.537054 17.3735645,138.073211 L17.3735645,120.628163 L0.426216626,114.653375 L17.3735645,89.4638899 L17.3735645,73.4862992 C17.3735645,72.0224563 18.3067735,70.3873228 19.457945,69.8341264 Z" id="path-11"></path>
        <filter x="-23.5%" y="-18.6%" width="131.4%" height="137.2%" filterUnits="objectBoundingBox" id="filter-12">
            <feOffset dx="-13" dy="0" in="SourceAlpha" result="shadowOffsetOuter1"></feOffset>
            <feGaussianBlur stdDeviation="6.5" in="shadowOffsetOuter1" result="shadowBlurOuter1"></feGaussianBlur>
            <feComposite in="shadowBlurOuter1" in2="SourceAlpha" operator="out" result="shadowBlurOuter1"></feComposite>
            <feColorMatrix values="0 0 0 0 0.625821674   0 0 0 0 0.217098377   0 0 0 0 0.782498937  0 0 0 0.201794611 0" type="matrix" in="shadowBlurOuter1"></feColorMatrix>
        </filter>
        <path d="M19.457945,69.8341264 L163.974993,0.38634676 C165.126164,-0.166849629 166.059373,0.571375274 166.059373,2.03521823 L166.059373,66.6221297 C166.059373,68.0859726 165.126164,69.7211061 163.974993,70.2743025 L19.457945,139.722082 C18.3067735,140.275278 17.3735645,139.537054 17.3735645,138.073211 L17.3735645,120.628163 L0.426216626,114.653375 L17.3735645,89.4638899 L17.3735645,73.4862992 C17.3735645,72.0224563 18.3067735,70.3873228 19.457945,69.8341264 Z" id="path-13"></path>
        <filter x="-23.5%" y="-18.6%" width="131.4%" height="137.2%" filterUnits="objectBoundingBox" id="filter-14">
            <feOffset dx="-13" dy="0" in="SourceAlpha" result="shadowOffsetOuter1"></feOffset>
            <feGaussianBlur stdDeviation="6.5" in="shadowOffsetOuter1" result="shadowBlurOuter1"></feGaussianBlur>
            <feComposite in="shadowBlurOuter1" in2="SourceAlpha" operator="out" result="shadowBlurOuter1"></feComposite>
            <feColorMatrix values="0 0 0 0 0.625821674   0 0 0 0 0.217098377   0 0 0 0 0.782498937  0 0 0 0.201794611 0" type="matrix" in="shadowBlurOuter1"></feColorMatrix>
        </filter>
        <path d="M71.5368396,125.230227 L101.024641,112.125099 C106.353771,109.756699 110.673883,103.516587 110.673883,98.1874188 L110.673883,6.81135475 C110.673883,1.48218668 106.353771,-0.917989818 101.024641,1.45041049 L9.64924214,42.059957 C4.32011286,44.4283573 0,50.6684694 0,55.9976374 L0,147.373702 C0,152.70287 4.32011286,155.103046 9.64924214,152.734646 L39.1828109,139.609178 L55.410042,155.497254 L71.5368396,125.230227 Z" id="path-15"></path>
        <filter x="-31.2%" y="-13.9%" width="141.6%" height="127.7%" filterUnits="objectBoundingBox" id="filter-16">
            <feOffset dx="-13" dy="0" in="SourceAlpha" result="shadowOffsetOuter1"></feOffset>
            <feGaussianBlur stdDeviation="5" in="shadowOffsetOuter1" result="shadowBlurOuter1"></feGaussianBlur>
            <feComposite in="shadowBlurOuter1" in2="SourceAlpha" operator="out" result="shadowBlurOuter1"></feComposite>
            <feColorMatrix values="0 0 0 0 0.577893889   0 0 0 0 0.0352941176   0 0 0 0 0.745098039  0 0 0 0.1 0" type="matrix" in="shadowBlurOuter1"></feColorMatrix>
        </filter>
        <linearGradient x1="-68.122737%" y1="-19.7714662%" x2="93.1755706%" y2="111.198767%" id="linearGradient-17">
            <stop stop-color="#FFBF6E" offset="0%"></stop>
            <stop stop-color="#DF8718" offset="100%"></stop>
        </linearGradient>
    </defs>
    <g id="Page-1" stroke="none" stroke-width="1" fill="none" fill-rule="evenodd">
        <g id="002-Fone-Dynamics---Call-Tracking-Analytics-Copy" transform="translate(-188.000000, -3862.000000)">
            <g id="Group-55" transform="translate(-240.000000, 3431.000000)">
                <g id="Group-86" transform="translate(0.000000, 300.000000)">
                    <g id="il_Call-Analytics-&amp;-Reporting:-Knowledge-Is-Power" transform="translate(427.000000, 140.000000)">
                        <path d="M0.962957018,528.904175 C26.3167829,511.779888 47.979862,491.747295 65.9521942,468.806394 C92.9106926,434.395044 99.6503172,419.929378 130.46003,425.304038 C161.269742,430.678698 169.453572,411.19745 173.304786,432.002338 C177.156,452.807226 201.226088,450.571682 203.151695,469.880123 C205.077302,489.188565 230.110193,496.739077 232.998604,455.76614 C235.887014,414.793204 246.959255,397.172671 268.140932,381.379433 C289.322609,365.586195 284.02719,385.420878 303.764662,373.199006 C323.502134,360.977134 332.648768,315.732434 354.311847,330.040083 C375.974926,344.347731 380.307542,324.005527 406.784638,314.854895 C433.261735,305.704264 455.406216,288.492925 469.366867,253.006908 C483.327518,217.520891 493.436954,206.963485 504.990597,232.309945 C516.544239,257.656404 527.616479,293.821424 540.614327,275.158475 C553.612174,256.495527 557.463388,240.713615 580.570672,263.966434" id="Path-4" stroke="url(#linearGradient-1)" stroke-width="6.25" opacity="0.669999957" stroke-linecap="round" stroke-linejoin="round"></path>
                        <g id="Group-64-Copy" transform="translate(73.583720, 0.000000)">
                            <g id="Group-66" transform="translate(-0.000000, 0.000000)">
                                <g id="Group-63" transform="translate(0.476585, 142.259019)">
                                    <path d="M0.404410079,402.432958 L167.467187,321.730974 L268.051167,367.603621 L92.2665005,439.720933 L0.404410079,402.432958 Z" id="Combined-Shape" fill="url(#radialGradient-2)"></path>
                                    <path d="M96.9174393,105.716561 L97.7901485,431.060691 C97.8310213,445.412819 107.934163,452.238691 120.354184,446.306898 L248.48651,385.112841 C260.907288,379.181126 270.944579,362.736302 270.904463,348.385013 L270.031754,23.0408834 C269.990881,8.68951603 259.88774,1.86288356 247.467719,7.79467588 L119.335393,68.9887333 C106.914614,74.9204478 96.8773235,91.3652717 96.9174393,105.716561 Z" id="Fill-24" fill="#FFFFFE"></path>
                                    <path d="M237.772219,2.66556942 C244.12342,-0.32430159 249.879269,-0.0888554823 254.035202,2.70800305 L264.83526,8.77307466 C260.679327,5.97621613 256.947355,8.3339852 250.595385,11.3237799 L120.383833,72.6252046 C107.761426,78.5673201 97.5611982,94.9978172 97.6019652,109.321036 L98.4888413,434.028875 C98.5096094,441.144959 101.759416,444.730293 105.862276,447.491509 L92.3330141,440.505534 C88.2301549,437.745077 85.6856745,432.486672 85.6649064,425.371348 L84.7787996,100.663585 C84.7372633,86.3395304 94.9374913,69.9090333 107.559898,63.9669178 L237.772219,2.66556942 Z" id="Fill-21" fill="url(#linearGradient-3)"></path>
                                    <path d="M96.9174393,105.716561 L97.7901485,431.060691 C97.8310213,445.412819 107.934163,452.238691 120.354184,446.306898 L248.48651,385.112841 C260.907288,379.181126 270.944579,362.736302 270.904463,348.385013 L270.031754,23.0408834 C269.990881,8.68951603 259.88774,1.86288356 247.467719,7.79467588 L119.335393,68.9887333 C106.914614,74.9204478 96.8773235,91.3652717 96.9174393,105.716561 Z" id="Fill-24" fill="#F6F8FD"></path>
                                    <path d="M102.986752,107.561832 L103.7908,420.182037 C103.827627,433.127583 113.130952,439.266975 124.56792,433.893064 L244.192295,377.688295 C255.630029,372.314459 264.871977,357.462237 264.83515,344.515936 L264.031102,31.8964866 C263.994276,18.9509406 254.690951,12.8115485 243.253983,18.1854599 L123.628841,74.390153 C112.19264,79.7641401 102.949926,94.6162861 102.986752,107.561832 Z" id="Fill-25" fill="url(#radialGradient-4)"></path>
                                    <polygon id="Fill-26" fill="url(#linearGradient-5)" points="109.055966 400.229401 258.765937 329.713316 258.765937 51.849122 109.055966 122.365207"></polygon>
                                    <g id="Group-35" transform="translate(117.926725, 73.217431)">
                                        <g id="Group-76">
                                            <g id="Rectangle-3-Copy-8" opacity="0.900000036">
                                                <use fill="black" fill-opacity="1" filter="url(#filter-7)" xlink:href="#path-6"></use>
                                                <use fill="#FFFFFF" fill-rule="evenodd" xlink:href="#path-6"></use>
                                                <path stroke="#F3F4F6" stroke-width="1.25" d="M3.51704518,59.4626315 C2.42926306,59.9652255 1.4901117,61.5933825 1.4901117,63.038316 L1.4901117,179.528865 C1.4901117,180.78451 2.12393721,181.297639 2.99275745,180.896213 L128.855011,122.743373 C129.942793,122.240779 130.881944,120.612622 130.881944,119.167688 L130.881944,2.67713971 C130.881944,1.42149491 130.248119,0.908365069 129.379298,1.30979094 L3.51704518,59.4626315 Z"></path>
                                            </g>
                                            <path d="M20.1112362,161.342388 L118.646668,115.815511" id="Line-Copy" stroke="#232425" stroke-width="1.25" opacity="0.2" stroke-linecap="square"></path>
                                            <path d="M20.1112362,133.992433 L118.646668,88.4655562" id="Line-Copy-2" stroke="#232425" stroke-width="1.25" opacity="0.2" stroke-linecap="square"></path>
                                            <path d="M20.1112362,106.642478 L118.646668,61.1156013" id="Line-Copy-3" stroke="#232425" stroke-width="1.25" opacity="0.2" stroke-linecap="square"></path>
                                            <path d="M20.1112362,79.292523 L118.646668,33.7656464" id="Line-Copy-4" stroke="#232425" stroke-width="1.25" opacity="0.2" stroke-linecap="square"></path>
                                            <polygon id="Rectangle-9-Copy-14" fill="#E2A8FB" points="19.0982823 59.6140227 42.9961784 48.5723441 42.9961784 53.6371506 19.0982823 64.6788292"></polygon>
                                            <polygon id="Rectangle-9-Copy-15" fill="#E2A8FB" points="56.5775774 42.0746556 80.4754735 31.032977 80.4754735 36.0977834 56.5775774 47.139462"></polygon>
                                            <polygon id="Rectangle-9-Copy-16" fill="#E2A8FB" points="95.0698264 24.5540435 118.967723 13.5123649 118.967723 18.5771713 95.0698264 29.6188499"></polygon>
                                            <path d="M20.4215718,160.622528 L25.5760422,130.726382 C25.7888082,129.49233 26.9616788,128.664415 28.1957219,128.877183 C28.8720836,128.993798 29.4592229,129.410503 29.7925396,130.010477 C30.4331562,131.163595 31.887259,131.579056 33.040369,130.938435 C33.6480602,130.600826 34.0785089,130.01521 34.219355,129.334448 L39.2188726,105.169937 C39.6779414,102.951089 41.8488096,101.524508 44.0676424,101.98358 C44.5437398,102.082083 44.9985388,102.264428 45.4108191,102.522105 C47.5840641,103.880393 50.4469292,103.219727 51.8052074,101.046466 C51.9996016,100.735433 52.1564341,100.402449 52.2724209,100.054486 L54.1570557,94.4005404 C55.0324382,91.7743739 57.870989,90.3550881 60.4971364,91.230477 C61.7340448,91.6427828 62.7616162,92.5208426 63.361785,93.6783196 L66.6516793,100.023162 C68.4790515,103.547405 72.8173723,104.92298 76.34159,103.095595 C78.1716585,102.146664 79.5062267,100.457664 80.0062037,98.4577415 L88.8991696,62.8856188 C89.1829445,61.7505111 90.3331693,61.0603712 91.4682686,61.3441481 C92.1009494,61.5023195 92.6255248,61.9430695 92.890389,62.5390182 L93.4076397,63.7028406 C94.0884506,65.2346764 95.8821461,65.9245643 97.4139708,65.2437484 C97.8391136,65.0547947 98.2151295,64.7706362 98.5129697,64.4132254 C99.5368166,63.1846002 101.362799,63.0186006 102.591415,64.0424549 C102.9638,64.3527783 103.252328,64.7516176 103.430546,65.2024074 L122.877486,114.392084 L20.4215718,160.622528 Z" id="Path-13" fill="#E28DFF" opacity="0.699999988"></path>
                                        </g>
                                    </g>
                                    <polygon id="Fill-26" fill="#FFFFFF" opacity="0.253556437" points="117.926725 378.644874 249.895177 316.485363 249.895177 207.185413 117.926725 269.344924"></polygon>
                                    <path d="M177.841671,387.450369 L177.864526,395.281001 C177.878713,400.120693 181.417368,402.410092 185.767787,400.393939 L202.364793,392.701879 C206.710483,390.688327 210.225495,385.130237 210.211309,380.290544 L210.188453,372.459912 C210.174267,367.62022 206.635611,365.331584 202.289921,367.345136 L185.692916,375.037196 C181.342497,377.053348 177.827485,382.610676 177.841671,387.450369 Z" id="Fill-41" fill="#E5A9FC"></path>
                                </g>
                                <g id="Group-40" transform="translate(216.583894, 144.096454)">
                                    <g id="Container" opacity="0.959701528">
                                        <use fill="black" fill-opacity="1" filter="url(#filter-9)" xlink:href="#path-8"></use>
                                        <use fill="#FFFFFF" fill-rule="evenodd" xlink:href="#path-8"></use>
                                        <path stroke="#F3F4F6" stroke-width="1.25" d="M1.39546761,114.332381 L17.9985645,120.185803 L17.9985645,138.073211 C17.9985645,139.109516 18.4864903,139.495495 19.187236,139.158751 L163.704283,69.7109716 C164.628904,69.2666446 165.434373,67.855332 165.434373,66.6221297 L165.434373,2.03521823 C165.434373,0.998912612 164.946447,0.612933705 164.245702,0.949677573 L19.7286541,70.3974572 C18.8040336,70.8417843 17.9985645,72.2530969 17.9985645,73.4862992 L17.9985645,89.6545688 L1.39546761,114.332381 Z"></path>
                                    </g>
                                    <g id="Group-29" transform="translate(31.329734, 38.667241)">
                                        <polygon id="Rectangle-6" fill="#FFAF4B" points="44.3730753 24.3972088 94.2597267 0.710900771 94.2597267 8.11980248 44.3730753 31.8061105"></polygon>
                                        <polygon id="Rectangle-6-Copy" fill="#E5A9FC" points="44.3730753 37.8258432 116.450784 3.60316514 116.450784 7.307616 44.3730753 41.530294"></polygon>
                                        <polygon id="Rectangle-6-Copy-2" fill="#E5A9FC" points="44.3730753 44.3086322 97.4358228 19.1143057 97.4358228 22.8187565 44.3730753 48.013083"></polygon>
                                        <polygon id="Rectangle-6-Copy-3" fill="#E5A9FC" points="44.3730753 50.7914212 97.4358228 25.5970947 97.4358228 29.3015455 44.3730753 54.495872"></polygon>
                                        <path d="M18.6378979,74.4587319 C28.4777682,69.7867367 36.4545592,56.6700535 36.4545592,45.1618002 C36.4545592,33.6535468 28.4777682,28.1116646 18.6378979,32.7836598 C8.79802764,37.4556551 0.821236702,50.5723382 0.821236702,62.0805916 C0.821236702,73.588845 8.79802764,79.1307272 18.6378979,74.4587319 Z" id="Oval-6" fill="url(#linearGradient-10)"></path>
                                        <path d="M18.4500161,56.5891129 C20.9534851,55.4004595 23.2333086,50.1702435 23.2333086,45.6157245 C23.2333086,41.6655159 21.4900643,40.2275148 18.4500161,41.6709374 C15.409968,43.1143599 13.6667236,46.2077546 13.6667236,50.1579632 C13.6667236,54.7124822 15.9465471,57.7777663 18.4500161,56.5891129 Z" id="Shape" fill="#FEFEFE" fill-rule="nonzero"></path>
                                        <path d="M27.7798813,55.3424351 C26.4177059,55.0279717 23.5631432,54.403559 21.8425398,54.2692235 C20.9969815,55.8508059 19.7653716,57.1443306 18.4500161,57.8322942 C17.1306476,58.3946403 15.8957606,58.2682704 15.0496266,57.4843218 C13.3194566,59.253115 10.4715905,62.5945034 9.11536766,64.2032745 C8.64064344,64.7668927 8.35123694,65.507736 8.35195417,66.1575144 L8.35195417,67.2699131 C8.35123276,68.1841571 8.91763742,68.6946924 9.68893758,68.4750183 C12.5853167,67.6721468 15.5133362,66.6081512 18.4500161,65.291382 C21.3866961,63.8194651 24.3147156,62.1029986 27.2110947,60.1554539 C27.9824744,59.6426447 28.5489039,58.5940973 28.5480781,57.6804938 L28.5480781,56.5726949 C28.5487914,55.9199507 28.2573144,55.453153 27.7798813,55.3424351 Z" id="Shape" fill="#FEFEFE" fill-rule="nonzero"></path>
                                    </g>
                                </g>
                                <g id="Group-40-Copy" transform="translate(216.583894, 239.282093)">
                                    <g id="Container" opacity="0.959701528">
                                        <use fill="black" fill-opacity="1" filter="url(#filter-12)" xlink:href="#path-11"></use>
                                        <use fill="#FFFFFF" fill-rule="evenodd" xlink:href="#path-11"></use>
                                        <path stroke="#F3F4F6" stroke-width="1.25" d="M1.39546761,114.332381 L17.9985645,120.185803 L17.9985645,138.073211 C17.9985645,139.109516 18.4864903,139.495495 19.187236,139.158751 L163.704283,69.7109716 C164.628904,69.2666446 165.434373,67.855332 165.434373,66.6221297 L165.434373,2.03521823 C165.434373,0.998912612 164.946447,0.612933705 164.245702,0.949677573 L19.7286541,70.3974572 C18.8040336,70.8417843 17.9985645,72.2530969 17.9985645,73.4862992 L17.9985645,89.6545688 L1.39546761,114.332381 Z"></path>
                                    </g>
                                    <g id="Group-29" transform="translate(31.329734, 38.667241)">
                                        <polygon id="Rectangle-6" fill="#FFAF4B" points="44.3730753 24.3972088 94.2597267 0.710900771 94.2597267 8.11980248 44.3730753 31.8061105"></polygon>
                                        <polygon id="Rectangle-6-Copy" fill="#E5A9FC" points="44.3730753 37.8258432 116.450784 3.60316514 116.450784 7.307616 44.3730753 41.530294"></polygon>
                                        <polygon id="Rectangle-6-Copy-2" fill="#E5A9FC" points="44.3730753 44.3086322 97.4358228 19.1143057 97.4358228 22.8187565 44.3730753 48.013083"></polygon>
                                        <polygon id="Rectangle-6-Copy-3" fill="#E5A9FC" points="44.3730753 50.7914212 97.4358228 25.5970947 97.4358228 29.3015455 44.3730753 54.495872"></polygon>
                                        <path d="M18.6378979,74.4587319 C28.4777682,69.7867367 36.4545592,56.6700535 36.4545592,45.1618002 C36.4545592,33.6535468 28.4777682,28.1116646 18.6378979,32.7836598 C8.79802764,37.4556551 0.821236702,50.5723382 0.821236702,62.0805916 C0.821236702,73.588845 8.79802764,79.1307272 18.6378979,74.4587319 Z" id="Oval-6" fill="url(#linearGradient-10)"></path>
                                        <path d="M18.4500161,56.5891129 C20.9534851,55.4004595 23.2333086,50.1702435 23.2333086,45.6157245 C23.2333086,41.6655159 21.4900643,40.2275148 18.4500161,41.6709374 C15.409968,43.1143599 13.6667236,46.2077546 13.6667236,50.1579632 C13.6667236,54.7124822 15.9465471,57.7777663 18.4500161,56.5891129 Z" id="Shape" fill="#FEFEFE" fill-rule="nonzero"></path>
                                        <path d="M27.7798813,55.3424351 C26.4177059,55.0279717 23.5631432,54.403559 21.8425398,54.2692235 C20.9969815,55.8508059 19.7653716,57.1443306 18.4500161,57.8322942 C17.1306476,58.3946403 15.8957606,58.2682704 15.0496266,57.4843218 C13.3194566,59.253115 10.4715905,62.5945034 9.11536766,64.2032745 C8.64064344,64.7668927 8.35123694,65.507736 8.35195417,66.1575144 L8.35195417,67.2699131 C8.35123276,68.1841571 8.91763742,68.6946924 9.68893758,68.4750183 C12.5853167,67.6721468 15.5133362,66.6081512 18.4500161,65.291382 C21.3866961,63.8194651 24.3147156,62.1029986 27.2110947,60.1554539 C27.9824744,59.6426447 28.5489039,58.5940973 28.5480781,57.6804938 L28.5480781,56.5726949 C28.5487914,55.9199507 28.2573144,55.453153 27.7798813,55.3424351 Z" id="Shape" fill="#FEFEFE" fill-rule="nonzero"></path>
                                    </g>
                                </g>
                                <g id="Group-40-Copy-2" transform="translate(216.583894, 333.791758)">
                                    <g id="Container" opacity="0.959701528">
                                        <use fill="black" fill-opacity="1" filter="url(#filter-14)" xlink:href="#path-13"></use>
                                        <use fill="#FFFFFF" fill-rule="evenodd" xlink:href="#path-13"></use>
                                        <path stroke="#F3F4F6" stroke-width="1.25" d="M1.39546761,114.332381 L17.9985645,120.185803 L17.9985645,138.073211 C17.9985645,139.109516 18.4864903,139.495495 19.187236,139.158751 L163.704283,69.7109716 C164.628904,69.2666446 165.434373,67.855332 165.434373,66.6221297 L165.434373,2.03521823 C165.434373,0.998912612 164.946447,0.612933705 164.245702,0.949677573 L19.7286541,70.3974572 C18.8040336,70.8417843 17.9985645,72.2530969 17.9985645,73.4862992 L17.9985645,89.6545688 L1.39546761,114.332381 Z"></path>
                                    </g>
                                    <g id="Group-29" transform="translate(31.329734, 38.667241)">
                                        <polygon id="Rectangle-6" fill="#FFAF4B" points="44.3730753 24.3972088 94.2597267 0.710900771 94.2597267 8.11980248 44.3730753 31.8061105"></polygon>
                                        <polygon id="Rectangle-6-Copy" fill="#E5A9FC" points="44.3730753 37.8258432 116.450784 3.60316514 116.450784 7.307616 44.3730753 41.530294"></polygon>
                                        <polygon id="Rectangle-6-Copy-2" fill="#E5A9FC" points="44.3730753 44.3086322 97.4358228 19.1143057 97.4358228 22.8187565 44.3730753 48.013083"></polygon>
                                        <polygon id="Rectangle-6-Copy-3" fill="#E5A9FC" points="44.3730753 50.7914212 97.4358228 25.5970947 97.4358228 29.3015455 44.3730753 54.495872"></polygon>
                                        <path d="M18.6378979,74.4587319 C28.4777682,69.7867367 36.4545592,56.6700535 36.4545592,45.1618002 C36.4545592,33.6535468 28.4777682,28.1116646 18.6378979,32.7836598 C8.79802764,37.4556551 0.821236702,50.5723382 0.821236702,62.0805916 C0.821236702,73.588845 8.79802764,79.1307272 18.6378979,74.4587319 Z" id="Oval-6" fill="url(#linearGradient-10)"></path>
                                        <path d="M18.4500161,56.5891129 C20.9534851,55.4004595 23.2333086,50.1702435 23.2333086,45.6157245 C23.2333086,41.6655159 21.4900643,40.2275148 18.4500161,41.6709374 C15.409968,43.1143599 13.6667236,46.2077546 13.6667236,50.1579632 C13.6667236,54.7124822 15.9465471,57.7777663 18.4500161,56.5891129 Z" id="Shape" fill="#FEFEFE" fill-rule="nonzero"></path>
                                        <path d="M27.7798813,55.3424351 C26.4177059,55.0279717 23.5631432,54.403559 21.8425398,54.2692235 C20.9969815,55.8508059 19.7653716,57.1443306 18.4500161,57.8322942 C17.1306476,58.3946403 15.8957606,58.2682704 15.0496266,57.4843218 C13.3194566,59.253115 10.4715905,62.5945034 9.11536766,64.2032745 C8.64064344,64.7668927 8.35123694,65.507736 8.35195417,66.1575144 L8.35195417,67.2699131 C8.35123276,68.1841571 8.91763742,68.6946924 9.68893758,68.4750183 C12.5853167,67.6721468 15.5133362,66.6081512 18.4500161,65.291382 C21.3866961,63.8194651 24.3147156,62.1029986 27.2110947,60.1554539 C27.9824744,59.6426447 28.5489039,58.5940973 28.5480781,57.6804938 L28.5480781,56.5726949 C28.5487914,55.9199507 28.2573144,55.453153 27.7798813,55.3424351 Z" id="Shape" fill="#FEFEFE" fill-rule="nonzero"></path>
                                    </g>
                                </g>
                                <g id="Group-65" transform="translate(114.327571, 0.316797)">
                                    <g id="Combined-Shape" opacity="0.959701528">
                                        <use fill="black" fill-opacity="1" filter="url(#filter-16)" xlink:href="#path-15"></use>
                                        <use fill="#FFFFFF" fill-rule="evenodd" xlink:href="#path-15"></use>
                                        <path stroke="#F3F4F6" stroke-width="1.25" d="M55.2509228,154.466765 L71.0864157,124.746463 L100.770814,111.553963 C105.880465,109.283104 110.048883,103.262105 110.048883,98.1874188 L110.048883,6.81135475 C110.048883,1.95869891 106.213964,-0.171912741 101.278469,2.02154675 L9.90306959,42.6310932 C4.79341794,44.9019521 0.625,50.9229511 0.625,55.9976374 L0.625,147.373702 C0.625,152.226357 4.45991914,154.356969 9.3954147,152.16351 L39.3168106,138.865682 L55.2509228,154.466765 Z"></path>
                                    </g>
                                    <path d="M55.3369417,72.2459417 C51.2360138,74.0684981 47.8807091,78.9150098 47.8807091,83.0159675 C47.8807091,87.1169253 51.2360138,88.9810718 55.3369417,87.1585154 C59.4378696,85.3359589 62.7931743,80.4894473 62.7931743,76.3884895 C62.7931743,72.2875318 59.4378696,70.4233853 55.3369417,72.2459417 Z" id="Path" fill="#FFAF4B"></path>
                                    <path d="M77.7056394,69.7610116 C77.7056394,57.4581383 67.6397254,51.8656987 55.3369417,57.333368 C43.034158,62.8010374 32.968244,77.3405722 32.968244,89.6434455 C32.968244,97.845361 37.4419835,102.94059 44.1525928,104.059183 L47.8807091,96.0644695 C43.4069696,95.4430125 40.4244766,91.9219216 40.4244766,86.7025209 C40.4244766,78.5006053 47.1350859,68.8075821 55.3369417,65.1624692 C63.5387975,61.5173563 70.2494068,65.2456494 70.2494068,73.4475649 C70.2494068,79.03978 67.2669138,85.2118621 62.7931743,89.4369915 L66.5212905,94.1179658 C73.2318999,87.034643 77.7056394,77.9629271 77.7056394,69.7610116 Z" id="Path" fill="#FFAF4B"></path>
                                    <path d="M55.3369417,42.4207944 C34.8323021,51.5335766 18.0557789,75.7661347 18.0557789,96.2709235 C18.0557789,110.065054 25.5120114,118.681374 36.6963603,120.048609 L40.4244766,112.053896 C31.4769975,110.810982 25.5120114,103.7688 25.5120114,92.9571845 C25.5120114,76.5533535 38.93323,57.167307 55.3369417,49.8770812 C71.7406533,42.5868554 85.161872,50.0434415 85.161872,66.4472726 C85.161872,77.6317028 79.1968859,89.6030525 70.2494068,98.7989401 L73.9775231,103.479914 C85.161872,92.1714621 92.6181045,76.5548499 92.6181045,63.1335336 C92.6181045,42.6287448 75.8415813,33.3080122 55.3369417,42.4207944 Z" id="Path" fill="#FFAF4B"></path>
                                </g>
                            </g>
                        </g>
                        <g id="Group-30" transform="translate(140.152447, 424.400811)">
                            <path d="M37.8366898,93.7086691 C58.6259093,83.5144056 75.4789015,55.2741366 75.4789015,30.6322631 C75.4789015,5.99038949 58.6259093,-5.72171252 37.8366898,4.47255106 C17.0474703,14.6668146 0.194477997,42.9070836 0.194477997,67.5489571 C0.194477997,92.1908307 17.0474703,103.902933 37.8366898,93.7086691 Z" id="Oval-2-Copy-11" fill="url(#linearGradient-17)"></path>
                            <path d="M43.799874,96.7462036 C64.5890935,86.55194 81.4420857,58.3116711 81.4420857,33.6697975 C81.4420857,9.02792393 64.5890935,-2.68417807 43.799874,7.5100855 C23.0106545,17.7043491 6.15766219,45.944618 6.15766219,70.5864916 C6.15766219,95.2283651 23.0106545,106.940467 43.799874,96.7462036 Z" id="Oval-2-Copy-10" fill="#FFAF4B"></path>
                            <g id="phone-block.2" transform="translate(24.409626, 35.404629)" fill-rule="nonzero" fill="#FEFEFE">
                                <path d="M34.2678557,17.8626555 C33.7775511,17.5167482 33.1124471,17.5170193 32.4189242,17.863409 C31.7254013,18.2097987 31.0602973,18.8739186 30.5699927,19.7096048 L28.4465594,23.3278914 C27.876292,24.3003576 26.9886448,24.8697136 26.301283,24.703918 C23.4058236,24.0666873 20.7048837,22.9630756 18.2451016,21.4121395 C15.9375748,19.6016221 13.9013803,17.3651733 12.1716627,14.7413942 C11.7490172,14.1245815 11.8535537,13.0032418 12.4243213,12.0311817 L14.5477546,8.41289511 C15.0382396,7.57733614 15.3138064,6.63857247 15.3138064,5.80321339 C15.3138064,4.96785432 15.0382396,4.30436198 14.5477546,3.95876215 L9.61772937,0.483462106 C9.12742482,0.137554846 8.46232084,0.1378259 7.76879791,0.484215615 C7.07527497,0.830605329 6.410171,1.49472521 5.91986644,2.33041138 L2.96071613,7.37315688 C-0.011436978,12.4320487 -0.441836367,18.267504 1.93735407,21.2481384 C4.97989612,25.2778204 8.37184212,28.843275 12.083258,31.913037 C16.1703536,34.3417581 20.5365328,36.2462491 25.1432499,37.6096965 C28.6044087,38.746775 33.2706504,35.8977339 36.2382146,30.8355061 L39.1978809,25.7925028 C39.6883659,24.9569439 39.9639326,24.0181802 39.9639326,23.1828211 C39.9639326,22.347462 39.6883659,21.6839697 39.1978809,21.3383699 L34.2678557,17.8626555 Z" id="Shape"></path>
                            </g>
                        </g>
                    </g>
                </g>
            </g>
        </g>
    </g>
</svg>