<svg xmlns="http://www.w3.org/2000/svg" xmlns:xlink="http://www.w3.org/1999/xlink" viewBox="0 0 323.33 261.46"><defs><style>.cls-1{isolation:isolate;}.cls-15,.cls-2,.cls-6{fill:#d3e0f2;}.cls-3{fill:#98b4f7;}.cls-4{fill:#fff;}.cls-5{fill:url(#linear-gradient);}.cls-6{mix-blend-mode:multiply;}.cls-7{fill:#2b6af0;}.cls-8{fill:#0a49ac;}.cls-9{fill:url(#linear-gradient-2);}.cls-10{fill:url(#linear-gradient-3);}.cls-11{fill:url(#linear-gradient-4);}.cls-12{fill:url(#linear-gradient-5);}.cls-13{fill:url(#linear-gradient-6);}.cls-14{fill:url(#linear-gradient-7);}.cls-15{stroke:#fff;stroke-linejoin:round;}.cls-15,.cls-16{stroke-linecap:round;}.cls-16{fill:none;stroke:#98b4f7;stroke-miterlimit:10;stroke-width:3px;stroke-dasharray:0 7;}</style><linearGradient id="linear-gradient" x1="1094.29" y1="468.27" x2="1083.64" y2="486.99" gradientTransform="matrix(-1, 0.21, 0.21, 0.98, 1472.12, -163.58)" gradientUnits="userSpaceOnUse"><stop offset="0" stop-color="#0a49ac"/><stop offset="0.22" stop-color="#0d4cb1"/><stop offset="0.49" stop-color="#1453c0"/><stop offset="0.78" stop-color="#205fd9"/><stop offset="1" stop-color="#2b6af0"/></linearGradient><linearGradient id="linear-gradient-2" x1="436.46" y1="509.92" x2="468.59" y2="556.6" gradientTransform="matrix(1, 0, 0, 1, 0, 0)" xlink:href="#linear-gradient"/><linearGradient id="linear-gradient-3" x1="446.89" y1="489.28" x2="442.26" y2="497.41" gradientTransform="matrix(1, 0, 0, 1, 0, 0)" xlink:href="#linear-gradient"/><linearGradient id="linear-gradient-4" x1="415.32" y1="525.42" x2="438.63" y2="525.42" gradientTransform="matrix(1, 0, 0, 1, 0, 0)" xlink:href="#linear-gradient"/><linearGradient id="linear-gradient-5" x1="375.45" y1="480.71" x2="661.19" y2="589.22" gradientUnits="userSpaceOnUse"><stop offset="0" stop-color="#fff"/><stop offset="0.02" stop-color="#fff" stop-opacity="0.95"/><stop offset="0.14" stop-color="#fff" stop-opacity="0.73"/><stop offset="0.25" stop-color="#fff" stop-opacity="0.54"/><stop offset="0.37" stop-color="#fff" stop-opacity="0.37"/><stop offset="0.49" stop-color="#fff" stop-opacity="0.24"/><stop offset="0.61" stop-color="#fff" stop-opacity="0.13"/><stop offset="0.74" stop-color="#fff" stop-opacity="0.06"/><stop offset="0.86" stop-color="#fff" stop-opacity="0.01"/><stop offset="1" stop-color="#fff" stop-opacity="0"/></linearGradient><linearGradient id="linear-gradient-6" x1="1021.77" y1="524.11" x2="1307.51" y2="632.62" gradientTransform="matrix(-1, 0, 0, 1, 1479.44, 0)" xlink:href="#linear-gradient-5"/><linearGradient id="linear-gradient-7" x1="1020.16" y1="523.49" x2="1305.89" y2="632" gradientTransform="matrix(-1, 0, 0, 1, 1479.44, 0)" xlink:href="#linear-gradient-5"/></defs><title>availability2</title><g class="cls-1"><g id="Isolation_Mode" data-name="Isolation Mode"><path class="cls-2" d="M449.77,555.46l-103,59.48a9.14,9.14,0,0,0,0,15.83l103,59.48a20.49,20.49,0,0,0,20.49,0l103-59.48a9.14,9.14,0,0,0,0-15.83l-103-59.48A20.49,20.49,0,0,0,449.77,555.46Z" transform="translate(-254.89 -431.53)"/><path class="cls-3" d="M449.77,515.49L346.75,575a9.14,9.14,0,0,0,0,15.83l103,59.48a20.49,20.49,0,0,0,20.49,0l103-59.48a9.14,9.14,0,0,0,0-15.83l-103-59.48A20.49,20.49,0,0,0,449.77,515.49Z" transform="translate(-254.89 -431.53)"/><path class="cls-4" d="M449.77,512.63l-103,59.48a9.14,9.14,0,0,0,0,15.83l103,59.48a20.49,20.49,0,0,0,20.49,0l103-59.48a9.14,9.14,0,0,0,0-15.83l-103-59.48A20.49,20.49,0,0,0,449.77,512.63Z" transform="translate(-254.89 -431.53)"/><path class="cls-5" d="M462.32,501.42c1.26,4.39,5.34,14.34,6.89,16.36,3.5,4.58,14.82,18.95,14.82,18.95l-3.55,4.65s-14.68-14.15-17.39-16.58c-2.48-2.22-8-12.11-10.13-16.79S460.1,493.68,462.32,501.42Z" transform="translate(-254.89 -431.53)"/><ellipse class="cls-3" cx="483.22" cy="539.68" rx="3.2" ry="3.13" transform="translate(-356.39 -319.47) rotate(-11.98)"/><ellipse class="cls-6" cx="192.64" cy="181.14" rx="22.01" ry="11.23"/><path class="cls-7" d="M433.78,610.85c-1.28,3.89-2.13,5.7,3,8.31s7.78,2.32,9.59,1.26-6.54-9-6.54-9Z" transform="translate(-254.89 -431.53)"/><path class="cls-7" d="M452.46,603.52c-1.28,3.89-2.13,5.7,3,8.31s7.78,2.32,9.59,1.26-6.54-9-6.54-9Z" transform="translate(-254.89 -431.53)"/><path class="cls-8" d="M433.77,546.62s-3.94,11.65,0,32.84c0.71,3.8,0,31.39,0,31.39l6,0.52s6-24.48,6.42-31.29,1.3-21.1,1.3-21.1,3.84,15.39,4,20.17,1,24.37,1,24.37l6,0.52s5-26.79,4.82-33.16-2.75-30.31-2.75-30.31Z" transform="translate(-254.89 -431.53)"/><path class="cls-9" d="M431.34,509.3c0,9.31-.29,24,0,38.29,0.19,9.7,29.55,1.57,29.62-8.17,0.09-13.05,1.27-23.48,1.13-36.5C461.94,489.23,431.34,502.81,431.34,509.3Z" transform="translate(-254.89 -431.53)"/><path class="cls-3" d="M452.17,499.53V488.62h-9.1v10.91a3.12,3.12,0,0,0-1.92,2.54c0,2,2.9,3.57,6.47,3.57s6.47-1.6,6.47-3.57A3.12,3.12,0,0,0,452.17,499.53Z" transform="translate(-254.89 -431.53)"/><path class="cls-3" d="M457.89,486.78c0,4.44-1.47,11.73-5.91,11.73s-10.17-7.29-10.17-11.73A8,8,0,0,1,457.89,486.78Z" transform="translate(-254.89 -431.53)"/><path class="cls-10" d="M445.29,487.32c2.75-.94,6.13,1.08,9.36.65s5.35-4.2,5.35-4.2a15.72,15.72,0,0,1-3.19-3.34l1.09-.31A8.38,8.38,0,0,0,451,476.7c-3.42,0-6.71.33-9.88,5.19-4,6.09,1.92,12.43,1.92,12.43a6.5,6.5,0,0,0,2.3-4A7.75,7.75,0,0,0,445.29,487.32Z" transform="translate(-254.89 -431.53)"/><path class="cls-3" d="M436.44,540.4c-1.73-1.7-3.57-3.18-5.32-1.39a4.47,4.47,0,0,0-.05,6.32,5.47,5.47,0,0,0,7.1-.17C439.91,543.37,438.16,542.1,436.44,540.4Z" transform="translate(-254.89 -431.53)"/><path class="cls-11" d="M436,519.56c6.27-5.19-.27-15.56-3.07-13s-16.75,15.25-17.58,19.12c-0.69,3.21,13.47,14.72,18.36,18.59a2.23,2.23,0,0,0,3-.25h0a2.23,2.23,0,0,0,.16-2.81l-10.15-14Z" transform="translate(-254.89 -431.53)"/><path class="cls-2" d="M573.88,433.11a6.39,6.39,0,0,1,2.27,4.92V561.69a16.74,16.74,0,0,1-8.37,14.5l-102.37,59.1a6.39,6.39,0,0,1-5.4.49,6.45,6.45,0,0,0,7.47.7l102.37-59.1a16.74,16.74,0,0,0,8.37-14.5V439.22A6.45,6.45,0,0,0,573.88,433.11Z" transform="translate(-254.89 -431.53)"/><path class="cls-3" d="M457.74,630.87V507.2a16.74,16.74,0,0,1,8.37-14.5l102.37-59.1a6.39,6.39,0,0,1,5.4-.49,6.46,6.46,0,0,0-7.47-.7L464,491.5a16.74,16.74,0,0,0-8.37,14.5V629.67a6.46,6.46,0,0,0,4.35,6.12A6.39,6.39,0,0,1,457.74,630.87Z" transform="translate(-254.89 -431.53)"/><path class="cls-12" d="M465.41,635.29l102.37-59.1a16.74,16.74,0,0,0,8.37-14.5V438a4.7,4.7,0,0,0-7.67-4.43L466.12,492.7a16.74,16.74,0,0,0-8.37,14.5V630.87A4.7,4.7,0,0,0,465.41,635.29Z" transform="translate(-254.89 -431.53)"/><path class="cls-2" d="M474.74,621.72l84.49-48.78c3.55-2.05,6.43-6.6,6.43-10.15l-0.07-102.35-97.35,56.21L468.31,619C468.31,622.56,471.19,623.77,474.74,621.72Z" transform="translate(-254.89 -431.53)"/><path class="cls-7" d="M468.24,516.65l97.35-56.21v-4.24c0-3.37-2.73-4.53-6.11-2.58l-85.14,49.15c-3.37,1.95-6.11,6.26-6.11,9.63v4.24Z" transform="translate(-254.89 -431.53)"/><polygon class="cls-4" points="226.05 89.03 239.57 81.22 239.57 79.37 226.05 87.18 226.05 89.03"/><polygon class="cls-4" points="260.74 54.61 274.27 46.8 274.27 43.94 260.74 51.75 260.74 54.61"/><polygon class="cls-3" points="289.63 37.93 303.16 30.12 303.16 27.26 289.63 35.07 289.63 37.93"/><polygon class="cls-4" points="226.05 98.59 239.57 90.78 239.57 88.94 226.05 96.75 226.05 98.59"/><polygon class="cls-4" points="226.05 108.17 239.57 100.36 239.57 98.51 226.05 106.32 226.05 108.17"/><polygon class="cls-4" points="226.05 117.73 239.57 109.92 239.57 108.08 226.05 115.89 226.05 117.73"/><polygon class="cls-4" points="226.05 127.31 239.57 119.5 239.57 117.65 226.05 125.46 226.05 127.31"/><polygon class="cls-4" points="226.05 136.88 239.57 129.06 239.57 127.22 226.05 135.03 226.05 136.88"/><polygon class="cls-4" points="226.05 146.44 239.57 138.63 239.57 136.79 226.05 144.6 226.05 146.44"/><polygon class="cls-4" points="226.05 156.01 239.57 148.21 239.57 146.36 226.05 154.17 226.05 156.01"/><polygon class="cls-4" points="226.05 165.59 239.57 157.78 239.57 155.93 226.05 163.74 226.05 165.59"/><polygon class="cls-4" points="226.05 175.16 239.57 167.34 239.57 165.5 226.05 173.31 226.05 175.16"/><polygon class="cls-4" points="254.69 170.07 253.48 170.78 253.48 61.96 254.69 61.25 254.69 170.07"/><polygon class="cls-4" points="253.79 71.78 253.79 70.53 310.7 37.67 310.7 38.92 253.79 71.78"/><polygon class="cls-4" points="253.79 81.35 253.79 80.1 310.7 47.24 310.7 48.49 253.79 81.35"/><polygon class="cls-4" points="253.79 90.92 253.79 89.67 310.7 56.81 310.7 58.06 253.79 90.92"/><polygon class="cls-4" points="253.79 100.49 253.79 99.24 310.7 66.38 310.7 67.63 253.79 100.49"/><polygon class="cls-4" points="253.79 110.06 253.79 108.81 310.7 75.95 310.7 77.2 253.79 110.06"/><polygon class="cls-4" points="253.79 119.63 253.79 118.38 310.7 85.52 310.7 86.77 253.79 119.63"/><polygon class="cls-4" points="253.79 129.2 253.79 127.95 310.7 95.09 310.7 96.34 253.79 129.2"/><polygon class="cls-4" points="253.79 138.77 253.79 137.52 310.7 104.66 310.7 105.91 253.79 138.77"/><polygon class="cls-4" points="253.79 157.91 253.79 156.66 310.7 123.8 310.7 125.05 253.79 157.91"/><polygon class="cls-7" points="253.48 109.61 282.09 93.09 282.09 54.19 253.48 70.71 253.48 109.61"/><polygon class="cls-7" points="253.48 138.01 282.09 121.49 282.09 111.61 253.48 128.13 253.48 138.01"/><polygon class="cls-8" points="282.09 112.23 310.7 95.71 310.7 66.38 282.09 82.9 282.09 112.23"/><polygon class="cls-8" points="253.48 73.41 282.09 56.89 282.09 54.19 253.48 70.71 253.48 73.41"/><polygon class="cls-8" points="282.09 85.6 310.7 69.08 310.7 66.38 282.09 82.9 282.09 85.6"/><polygon class="cls-8" points="253.48 130.83 282.09 114.31 282.09 111.61 253.48 128.13 253.48 130.83"/><polygon class="cls-3" points="256.71 76.35 274.27 66.21 274.27 63.7 256.71 73.84 256.71 76.35"/><polygon class="cls-3" points="256.71 80.25 268.78 73.28 268.78 70.77 256.71 77.74 256.71 80.25"/><polygon class="cls-3" points="285.23 88.69 307.6 75.78 307.6 73.27 285.23 86.19 285.23 88.69"/><polygon class="cls-3" points="285.23 92.6 297.31 85.63 297.31 83.12 285.23 90.09 285.23 92.6"/><polygon class="cls-3" points="256.71 133.71 274.27 123.57 274.27 121.06 256.71 131.2 256.71 133.71"/><path class="cls-2" d="M259.24,476.5a6.39,6.39,0,0,0-2.27,4.92V605.08a16.74,16.74,0,0,0,8.37,14.5l102.37,59.1a6.39,6.39,0,0,0,5.4.49,6.45,6.45,0,0,1-7.47.7l-102.37-59.1a16.74,16.74,0,0,1-8.37-14.5V482.62A6.45,6.45,0,0,1,259.24,476.5Z" transform="translate(-254.89 -431.53)"/><path class="cls-3" d="M375.37,674.26V550.59a16.74,16.74,0,0,0-8.37-14.5L264.63,477a6.39,6.39,0,0,0-5.4-.49,6.46,6.46,0,0,1,7.47-.7l102.37,59.1a16.74,16.74,0,0,1,8.37,14.5V673.06a6.46,6.46,0,0,1-4.35,6.12A6.39,6.39,0,0,0,375.37,674.26Z" transform="translate(-254.89 -431.53)"/><path class="cls-13" d="M367.7,678.69l-102.37-59.1a16.74,16.74,0,0,1-8.37-14.5V481.42a4.7,4.7,0,0,1,7.67-4.43L367,536.09a16.74,16.74,0,0,1,8.37,14.5V674.26A4.7,4.7,0,0,1,367.7,678.69Z" transform="translate(-254.89 -431.53)"/><path class="cls-14" d="M367.7,678.69l-102.37-59.1a16.74,16.74,0,0,1-8.37-14.5V481.42a4.7,4.7,0,0,1,7.67-4.43L367,536.09a16.74,16.74,0,0,1,8.37,14.5V674.26A4.7,4.7,0,0,1,367.7,678.69Z" transform="translate(-254.89 -431.53)"/><ellipse class="cls-2" cx="278.6" cy="547.8" rx="6.01" ry="9.67" transform="translate(-433.61 -294.29) rotate(-21.13)"/><ellipse class="cls-2" cx="356.72" cy="588.99" rx="10.45" ry="15.16" transform="translate(-443.2 -263.37) rotate(-21.13)"/><ellipse class="cls-2" cx="317.44" cy="540.26" rx="6.01" ry="9.67" transform="translate(-428.28 -280.8) rotate(-21.13)"/><ellipse class="cls-2" cx="317.44" cy="600.48" rx="6.01" ry="9.67" transform="translate(-449.99 -276.75) rotate(-21.13)"/><polyline class="cls-15" points="96.2 155.83 100.32 163.53 107.46 153.96"/><polygon class="cls-16" points="20.23 118.29 59.06 170.97 98.34 159.47 59.06 110.74 20.23 118.29"/><ellipse class="cls-7" cx="275.12" cy="549.82" rx="6.01" ry="9.67" transform="translate(-434.57 -295.41) rotate(-21.13)"/><ellipse class="cls-7" cx="353.23" cy="591" rx="10.45" ry="15.16" transform="translate(-444.16 -264.49) rotate(-21.13)"/><ellipse class="cls-3" cx="313.95" cy="542.27" rx="6.01" ry="9.67" transform="translate(-429.24 -281.92) rotate(-21.13)"/><ellipse class="cls-3" cx="313.95" cy="602.5" rx="6.01" ry="9.67" transform="translate(-450.95 -277.87) rotate(-21.13)"/><path class="cls-4" d="M351.73,597.57h0a0.5,0.5,0,0,1-.4-0.26l-4.12-7.7a0.5,0.5,0,1,1,.88-0.47l3.75,7,6.67-8.94a0.5,0.5,0,0,1,.8.6l-7.14,9.57A0.5,0.5,0,0,1,351.73,597.57Z" transform="translate(-254.89 -431.53)"/></g></g></svg>