<svg xmlns="http://www.w3.org/2000/svg" xmlns:xlink="http://www.w3.org/1999/xlink" width="358" height="476" viewBox="0 0 358 476">
    <defs>
        <linearGradient id="a" x1="57.787%" x2="53.477%" y1="78.473%" y2="-9.976%">
            <stop offset="0%" stop-color="#C716A1"/>
            <stop offset="100%" stop-color="#FF94EF"/>
        </linearGradient>
        <linearGradient id="b" x1="71.781%" x2="46.345%" y1="39.743%" y2="-63.988%">
            <stop offset="0%" stop-color="#71C2FF"/>
            <stop offset="100%" stop-color="#EDF5FF"/>
        </linearGradient>
        <path id="c" d="M138.037 54.833L1.963 3.11C.879 2.697 0 3.485 0 4.87v61.047c0 1.383.879 2.839 1.963 3.25l136.074 51.725c1.084.412 1.963-.376 1.963-1.76V58.084c0-1.383-.879-2.839-1.963-3.25z"/>
        <linearGradient id="d" x1="64.004%" x2="78.346%" y1="8.092%" y2="79.317%">
            <stop offset="0%" stop-color="#B66DF6"/>
            <stop offset="100%" stop-color="#8248DF"/>
        </linearGradient>
        <path id="e" d="M138.037 54.833L1.963 3.11C.879 2.697 0 3.485 0 4.87v61.047c0 1.383.879 2.839 1.963 3.25l136.074 51.725c1.084.412 1.963-.376 1.963-1.76V58.084c0-1.383-.879-2.839-1.963-3.25z"/>
        <path id="f" d="M138.037 54.833L1.963 3.11C.879 2.697 0 3.485 0 4.87v61.047c0 1.383.879 2.839 1.963 3.25l136.074 51.725c1.084.412 1.963-.376 1.963-1.76V58.084c0-1.383-.879-2.839-1.963-3.25z"/>
        <path id="g" d="M138.037 54.833L1.963 3.11C.879 2.697 0 3.485 0 4.87v61.047c0 1.383.879 2.839 1.963 3.25l136.074 51.725c1.084.412 1.963-.376 1.963-1.76V58.084c0-1.383-.879-2.839-1.963-3.25z"/>
    </defs>
    <g fill="none" fill-rule="evenodd">
        <path d="M-27.185-2.209l411.509-40.146V478.25l-411.51 40.147z"/>
        <path stroke="#99D6F0" d="M331.915 143.357v76.108l-76.107-29.125v-76.108l76.107 29.125zm0-.754l-76.107-29.124V89.105l-.754 24.085-76.108-29.124V59.692l-.754 24.085-76.107-29.124V30.279l-.754 24.085L25.223 25.24V.866l-.754 24.085L.095 15.624l24.374 10.08v76.109L.095 92.486l24.374 10.08v76.108L.095 169.347l24.374 10.08v76.109L.095 246.209l24.374 10.08v76.108L.095 323.07l24.374 10.08v24.375l.754-24.086 76.108 29.125v24.374l.754-24.086 76.107 29.125v24.374l.754-24.086 76.108 29.125v24.374l.754-24.086 76.107 29.125v24.374l.754-24.086 24.374 9.327-24.374-10.08V374.23l24.374 9.327-24.374-10.081v-76.108l24.374 9.327-24.374-10.08v-76.108l24.374 9.327-24.374-10.081v-76.108l24.374 9.327-24.374-10.08v-24.375l-.754 24.086zM25.223 25.993l76.108 29.125v76.108L25.223 102.1V25.993zm76.862 29.413l76.107 29.125v76.108l-76.107-29.125V55.406zm76.861 29.413l76.108 29.125v76.108l-76.108-29.125V84.82zm152.97 211.507l-76.108-29.124v-76.108l76.107 29.124v76.108zM25.222 102.855l76.108 29.124v76.108l-76.108-29.124v-76.108zm76.862 29.413l76.107 29.124V237.5l-76.107-29.124v-76.108zm152.969 58.537v76.108l-76.108-29.124V161.68l76.108 29.124zm76.861 182.383l-76.107-29.125v-76.108l76.107 29.125v76.108zM101.331 208.84v76.108l-76.108-29.125v-76.108l76.108 29.125zm76.861 29.413v76.108l-76.107-29.125V209.13l76.107 29.125zm76.862 29.413v76.108l-76.108-29.125v-76.108l76.108 29.125zm76.861 106.274v76.108l-76.107-29.124v-76.108l76.107 29.124zm-230.584-88.239v76.108l-76.108-29.124v-76.108l76.108 29.124zm.754.289l76.107 29.124v76.108L102.085 362.1V285.99zm152.969 58.537v76.108l-76.108-29.124v-76.108l76.108 29.124z" opacity=".4"/>
        <path fill="url(#a)" d="M285.806 373c2.846-.923 8.132-3.716 8.884-4.299a3.35 3.35 0 0 0 1.104-1.526c.136-.38.206-.783.206-1.193v-254.85c0-2.369-1.53-4.556-3.791-5.422L16.685.253a3.668 3.668 0 0 0-2.41-.092c-.29.09-8.513 2.897-12.158 4.3-.796.308 2.46 82.727 9.769 247.258 0 2.325 1.476 4.48 3.68 5.377 179.641 77.437 269.722 116.071 270.24 115.903z" transform="translate(19.5 71)"/>
        <path fill="#FAFCFF" d="M302.642 443.722c1.908.77 3.993-.114 4.656-1.974.134-.377.202-.776.202-1.183V186.198c0-2.372-1.54-4.563-3.81-5.42L24.107 75.246c-1.924-.726-3.983.208-4.6 2.086-.08.242.592 83.269 2.017 249.079.02 2.308 1.496 4.44 3.686 5.323l277.432 111.988z"/>
        <path fill="#CCE3FD" d="M291.5 423c1.451.585 3.036-.086 3.54-1.498.102-.285.154-.589.154-.897V227.589c0-1.8-1.17-3.462-2.897-4.112l-256.294-97.29c-1.462-.551-3.029.158-3.498 1.583-.06.183.45 63.184 1.534 189.003.015 1.751 1.137 3.368 2.803 4.039L291.5 423z" opacity=".23"/>
        <path fill="#CCE3FD" d="M273.5 181.254L141.5 135v21.746L273.5 203z"/>
        <path fill="url(#a)" d="M254 153.132L180 127v21.868L254 175z" transform="translate(19.5 71)"/>
        <g>
            <path fill="url(#b)" d="M144.039 51.898L4.685.158C3.476-.279.018-.078 0 4.299l1.036 57.974c0 1.38.882 2.833 1.97 3.244L138.79 120.69c6.204 1.633 6.204-3.654 6.204-5.034v-60.59c0-1.38.131-2.757-.956-3.168z" transform="translate(19.5 263)"/>
            <g opacity=".96" transform="translate(19.5 263)">
                <use fill="#FFF" xlink:href="#c"/>
                <path stroke="#F3F4F6" d="M137.86 55.3L1.785 3.578C1.062 3.302.5 3.807.5 4.869v61.047c0 1.186.763 2.45 1.64 2.783l136.075 51.724c.723.275 1.285-.23 1.285-1.292V58.084c0-1.186-.763-2.45-1.64-2.783z"/>
            </g>
            <path fill="url(#a)" d="M94 61.164L47 44v6.836L94 68z" transform="translate(19.5 263)"/>
            <path fill="#C6E0FD" d="M134.5 344.487L66.5 319v3.513l68 25.487zM116.5 344.53L66.5 326v3.47l50 18.53z"/>
            <path fill="url(#d)" d="M25 64.026C15.611 60.587 8 49.058 8 38.274c0-10.784 7.611-16.738 17-13.3 9.389 3.439 17 14.968 17 25.752 0 10.784-7.611 16.738-17 13.3z" transform="translate(19.5 263)"/>
            <path fill="#FEFEFE" fill-rule="nonzero" d="M44.5 308.894c-2.094-.644-4-4.193-4-7.447 0-2.822 1.458-3.992 4-3.21s4 2.85 4 5.671c0 3.254-1.906 5.63-4 4.986zM36.223 309.55c1.281-.418 3.967-1.264 5.585-1.55.796 1.382 1.955 2.46 3.192 2.972 1.241.396 2.403.163 3.199-.641 1.628 1.471 4.307 4.29 5.583 5.649.446.476.719 1.133.718 1.733v1.028c0 .845-.532 1.37-1.258 1.24A54.104 54.104 0 0 1 45 317.863a66.73 66.73 0 0 1-8.242-3.92c-.726-.402-1.259-1.317-1.258-2.161v-1.024c0-.603.274-1.061.723-1.209z"/>
        </g>
        <g>
            <path fill="url(#b)" d="M144.039 51.898L4.685.158C3.476-.279.018-.078 0 4.299l1.036 57.974c0 1.38.882 2.833 1.97 3.244L138.79 120.69c6.204 1.633 6.204-3.654 6.204-5.034v-60.59c0-1.38.131-2.757-.956-3.168z" transform="translate(179.5 238)"/>
            <g opacity=".96" transform="translate(179.5 238)">
                <use fill="#FFF" xlink:href="#e"/>
                <path stroke="#F3F4F6" d="M137.86 55.3L1.785 3.578C1.062 3.302.5 3.807.5 4.869v61.047c0 1.186.763 2.45 1.64 2.783l136.075 51.724c.723.275 1.285-.23 1.285-1.292V58.084c0-1.186-.763-2.45-1.64-2.783z"/>
            </g>
            <path fill="url(#a)" d="M94 61.164L47 44v6.836L94 68z" transform="translate(179.5 238)"/>
            <path fill="#C6E0FD" d="M294.5 319.487L226.5 294v3.513l68 25.487zM276.5 319.53l-50-18.53v3.47l50 18.53z"/>
            <path fill="url(#d)" d="M25 64.026C15.611 60.587 8 49.058 8 38.274c0-10.784 7.611-16.738 17-13.3 9.389 3.439 17 14.968 17 25.752 0 10.784-7.611 16.738-17 13.3z" transform="translate(179.5 238)"/>
            <path fill="#FEFEFE" fill-rule="nonzero" d="M204.5 283.894c-2.094-.644-4-4.193-4-7.447 0-2.822 1.458-3.992 4-3.21s4 2.85 4 5.671c0 3.254-1.906 5.63-4 4.986zM196.223 284.55c1.281-.418 3.967-1.264 5.585-1.55.796 1.382 1.955 2.46 3.192 2.972 1.241.396 2.403.163 3.199-.641 1.628 1.471 4.307 4.29 5.583 5.649.446.476.719 1.133.718 1.733v1.028c0 .845-.532 1.37-1.258 1.24a54.104 54.104 0 0 1-8.242-2.117 66.73 66.73 0 0 1-8.242-3.92c-.726-.402-1.259-1.317-1.258-2.161v-1.024c0-.603.274-1.061.723-1.209z"/>
        </g>
        <g>
            <path fill="url(#b)" d="M144.039 51.898L4.685.158C3.476-.279.018-.078 0 4.299l1.036 57.974c0 1.38.882 2.833 1.97 3.244L138.79 120.69c6.204 1.633 6.204-3.654 6.204-5.034v-60.59c0-1.38.131-2.757-.956-3.168z" transform="translate(179.5 323)"/>
            <g opacity=".96" transform="translate(179.5 323)">
                <use fill="#FFF" xlink:href="#f"/>
                <path stroke="#F3F4F6" d="M137.86 55.3L1.785 3.578C1.062 3.302.5 3.807.5 4.869v61.047c0 1.186.763 2.45 1.64 2.783l136.075 51.724c.723.275 1.285-.23 1.285-1.292V58.084c0-1.186-.763-2.45-1.64-2.783z"/>
            </g>
            <path fill="url(#a)" d="M94 61.164L47 44v6.836L94 68z" transform="translate(179.5 323)"/>
            <path fill="#C6E0FD" d="M294.5 404.487L226.5 379v3.513l68 25.487zM276.5 404.53l-50-18.53v3.47l50 18.53z"/>
            <path fill="url(#d)" d="M25 64.026C15.611 60.587 8 49.058 8 38.274c0-10.784 7.611-16.738 17-13.3 9.389 3.439 17 14.968 17 25.752 0 10.784-7.611 16.738-17 13.3z" transform="translate(179.5 323)"/>
            <path fill="#FEFEFE" fill-rule="nonzero" d="M204.5 368.894c-2.094-.644-4-4.193-4-7.447 0-2.822 1.458-3.992 4-3.21s4 2.85 4 5.671c0 3.254-1.906 5.63-4 4.986zM196.223 369.55c1.281-.418 3.967-1.264 5.585-1.55.796 1.382 1.955 2.46 3.192 2.972 1.241.396 2.403.163 3.199-.641 1.628 1.471 4.307 4.29 5.583 5.649.446.476.719 1.133.718 1.733v1.028c0 .845-.532 1.37-1.258 1.24a54.104 54.104 0 0 1-8.242-2.117 66.73 66.73 0 0 1-8.242-3.92c-.726-.402-1.259-1.317-1.258-2.161v-1.024c0-.603.274-1.061.723-1.209z"/>
        </g>
        <g>
            <path fill="url(#b)" d="M144.039 51.898L4.685.158C3.476-.279.018-.078 0 4.299l1.036 57.974c0 1.38.882 2.833 1.97 3.244L138.79 120.69c6.204 1.633 6.204-3.654 6.204-5.034v-60.59c0-1.38.131-2.757-.956-3.168z" transform="translate(19.5 178)"/>
            <g opacity=".96" transform="translate(19.5 178)">
                <use fill="#FFF" xlink:href="#g"/>
                <path stroke="#F3F4F6" d="M137.86 55.3L1.785 3.578C1.062 3.302.5 3.807.5 4.869v61.047c0 1.186.763 2.45 1.64 2.783l136.075 51.724c.723.275 1.285-.23 1.285-1.292V58.084c0-1.186-.763-2.45-1.64-2.783z"/>
            </g>
            <path fill="url(#a)" d="M94 61.164L47 44v6.836L94 68z" transform="translate(19.5 178)"/>
            <path fill="#C6E0FD" d="M134.5 259.487L66.5 234v3.513l68 25.487zM116.5 259.53L66.5 241v3.47l50 18.53z"/>
            <path fill="url(#d)" d="M25 64.026C15.611 60.587 8 49.058 8 38.274c0-10.784 7.611-16.738 17-13.3 9.389 3.439 17 14.968 17 25.752 0 10.784-7.611 16.738-17 13.3z" transform="translate(19.5 178)"/>
            <path fill="#FEFEFE" fill-rule="nonzero" d="M44.5 223.894c-2.094-.644-4-4.193-4-7.447 0-2.822 1.458-3.992 4-3.21s4 2.85 4 5.671c0 3.254-1.906 5.63-4 4.986zM36.223 224.55c1.281-.418 3.967-1.264 5.585-1.55.796 1.382 1.955 2.46 3.192 2.972 1.241.396 2.403.163 3.199-.641 1.628 1.471 4.307 4.29 5.583 5.649.446.476.719 1.133.718 1.733v1.028c0 .845-.532 1.37-1.258 1.24A54.104 54.104 0 0 1 45 232.863a66.73 66.73 0 0 1-8.242-3.92c-.726-.402-1.259-1.317-1.258-2.161v-1.024c0-.603.274-1.061.723-1.209z"/>
        </g>
    </g>
</svg>
