<svg xmlns="http://www.w3.org/2000/svg" xmlns:xlink="http://www.w3.org/1999/xlink" width="489" height="424" viewBox="0 0 489 424">
    <defs>
        <linearGradient id="a" x1="13.579%" x2="98.27%" y1="100%" y2="2.233%">
            <stop offset="0%" stop-color="#965EE7"/>
            <stop offset="100%" stop-color="#AF7DFF"/>
        </linearGradient>
        <linearGradient id="b" x1="19.063%" x2="53.066%" y1="227.422%" y2="0%">
            <stop offset="0%" stop-color="#C716A1"/>
            <stop offset="100%" stop-color="#FF94EF"/>
        </linearGradient>
        <linearGradient id="c" x1="64.004%" x2="78.346%" y1="8.092%" y2="79.317%">
            <stop offset="0%" stop-color="#B66DF6"/>
            <stop offset="100%" stop-color="#8248DF"/>
        </linearGradient>
        <linearGradient id="d" x1="112.674%" x2="-15.969%" y1="108.825%" y2="-18.173%">
            <stop offset="0%" stop-color="#93D0FF"/>
            <stop offset="100%" stop-color="#F9FDFE"/>
        </linearGradient>
        <linearGradient id="e" x1="17.315%" x2="17.315%" y1="89.958%" y2="0%">
            <stop offset="0%" stop-color="#93D0FF" stop-opacity="0"/>
            <stop offset="100%" stop-color="#FFF"/>
        </linearGradient>
        <linearGradient id="f" x1="72.259%" x2="72.259%" y1="7.403%" y2="91.969%">
            <stop offset="0%" stop-color="#787878"/>
            <stop offset="100%" stop-color="#2D2D2D"/>
        </linearGradient>
        <linearGradient id="g" x1="52.418%" x2="52.418%" y1="11.298%" y2="28.951%">
            <stop offset="0%" stop-color="#EDF5FF"/>
            <stop offset="100%" stop-color="#C6E0FD"/>
        </linearGradient>
        <linearGradient id="h" x1="54.62%" x2="54.62%" y1="-5.369%" y2="17.793%">
            <stop offset="0%" stop-color="#83AEDF"/>
            <stop offset="100%" stop-color="#C6E0FD"/>
        </linearGradient>
        <linearGradient id="i" x1="57.857%" x2="57.857%" y1="9.272%" y2="48.214%">
            <stop offset="0%" stop-color="#FFF"/>
            <stop offset="100%" stop-color="#CCE3FD"/>
        </linearGradient>
        <linearGradient id="j" x1="57.787%" x2="53.477%" y1="78.473%" y2="-9.976%">
            <stop offset="0%" stop-color="#C716A1"/>
            <stop offset="100%" stop-color="#FF94EF"/>
        </linearGradient>
        <path id="l" d="M22.073 71.613l63.91-30.712c.67-.322 1.214-1.274 1.214-2.126V1.185c0-.852-.543-1.282-1.213-.96L1.87 40.645c-.67.322-1.213 1.274-1.213 2.126v37.59c0 .853.543 1.282 1.213.96l9.817-4.717 3.369 5.99a1 1 0 0 0 1.773-.058l5.243-10.923z"/>
        <filter id="k" width="160.1%" height="162.7%" x="-45.1%" y="-31.3%" filterUnits="objectBoundingBox">
            <feOffset dx="-13" in="SourceAlpha" result="shadowOffsetOuter1"/>
            <feGaussianBlur in="shadowOffsetOuter1" result="shadowBlurOuter1" stdDeviation="6.5"/>
            <feComposite in="shadowBlurOuter1" in2="SourceAlpha" operator="out" result="shadowBlurOuter1"/>
            <feColorMatrix in="shadowBlurOuter1" values="0 0 0 0 0.0352941176 0 0 0 0 0.505882353 0 0 0 0 0.745098039 0 0 0 0.1 0"/>
        </filter>
        <linearGradient id="m" x1="53.066%" x2="53.066%" y1="129.316%" y2="0%">
            <stop offset="0%" stop-color="#C716A1"/>
            <stop offset="100%" stop-color="#FF94EF"/>
        </linearGradient>
        <path id="o" d="M22.073 71.613l63.91-30.712c.67-.322 1.214-1.274 1.214-2.126V1.185c0-.852-.543-1.282-1.213-.96L1.87 40.645c-.67.322-1.213 1.274-1.213 2.126v37.59c0 .853.543 1.282 1.213.96l9.817-4.717 3.369 5.99a1 1 0 0 0 1.773-.058l5.243-10.923z"/>
        <filter id="n" width="160.1%" height="162.7%" x="-45.1%" y="-31.3%" filterUnits="objectBoundingBox">
            <feOffset dx="-13" in="SourceAlpha" result="shadowOffsetOuter1"/>
            <feGaussianBlur in="shadowOffsetOuter1" result="shadowBlurOuter1" stdDeviation="6.5"/>
            <feComposite in="shadowBlurOuter1" in2="SourceAlpha" operator="out" result="shadowBlurOuter1"/>
            <feColorMatrix in="shadowBlurOuter1" values="0 0 0 0 0.0352941176 0 0 0 0 0.505882353 0 0 0 0 0.745098039 0 0 0 0.1 0"/>
        </filter>
        <linearGradient id="p" x1="237.577%" x2="-1.956%" y1="68.227%" y2="42.465%">
            <stop offset="0%" stop-color="#DBF0FF"/>
            <stop offset="100%" stop-color="#F9FDFE"/>
        </linearGradient>
    </defs>
    <g fill="none" fill-rule="evenodd">
        <path fill="url(#a)" d="M60.896 50H116v108H60.896z" transform="translate(70.494 95)"/>
        <path fill="#8349DF" d="M135.995 165.415h45.894v56.434h-45.894z"/>
        <path fill="url(#b)" d="M76.806 55.415h23.284v11.389H76.806z" transform="translate(70.494 95)"/>
        <path fill="#8349DF" d="M102.39 95h113.104l31 22-60 28H131.39l-60-28z"/>
        <path fill="url(#c)" d="M176 22l-60 28v108l60-28z" transform="translate(70.494 95)"/>
        <path fill="#7438CE" d="M239.53 136.612l-46.073 21.502v55.274l46.074-21.502z"/>
        <path fill="url(#d)" d="M42.43 2.612L.963 21.964V72.41L42.43 53.06z" transform="translate(192.494 136)"/>
        <path fill="url(#c)" d="M.506 32l.457 40.41L42.43 53.06z" opacity=".23" transform="translate(192.494 136)"/>
        <path fill="url(#e)" d="M42.43 2.612L.963 21.964V72.41z" transform="translate(192.494 136)"/>
        <path fill="url(#c)" d="M60.896 22l-60 28v108l60-28z" transform="matrix(-1 0 0 1 132.286 95)"/>
        <g>
            <path fill="#7438CE" d="M78.353 136.612l46.074 21.502v55.274l-46.074-21.502z"/>
            <path fill="url(#d)" d="M42.43 2.612L.963 21.964V72.41L42.43 53.06z" transform="matrix(-1 0 0 1 125.39 136)"/>
            <path fill="url(#c)" d="M.506 32l.457 40.41L42.43 53.06z" opacity=".23" transform="matrix(-1 0 0 1 125.39 136)"/>
            <path fill="url(#e)" d="M42.43 2.612L.963 21.964V72.41z" transform="matrix(-1 0 0 1 125.39 136)"/>
        </g>
        <path fill="#7438CE" d="M135.995 214h45.894v7.849h-45.894z"/>
        <g>
            <g transform="translate(123.505 .884)">
                <path fill="url(#c)" d="M3.771 7.132L10.043 0c5.89 7.7 6.228 13.167 1.011 16.4-5.216 3.233-7.643.143-7.283-9.268z" transform="rotate(15 -22.628 178.708)"/>
                <path fill="url(#b)" d="M9.806 3.072c4.681 8.836 4.174 13.644-1.52 14.422-5.696.779-8.423-2.888-8.182-11l9.702-3.422z" transform="rotate(15 -22.628 178.708)"/>
                <path fill="url(#f)" d="M15.442 27.58c-1.96-5.015-.846-10.72 3.343-17.117C25.068.868 37.167 1.12 44.937 2.86c5.18 1.161 8.366 5.133 9.557 11.917.602 7.667-.482 12.092-3.25 13.275-4.14 7.796-8.502 14.253-13.089 19.372l-12.561-1.93c-5.474-4.598-8.211-7.235-8.211-7.912 0-.677-.647-4.011-1.941-10.003z"/>
                <path fill="url(#g)" d="M23.882 43.344c1.231 6.362-.796 11.383-6.083 15.065C9.87 63.93 4.296 64.566 4.557 87.535c.174 15.313.54 29.088 1.1 41.326.297 2.935 2.305 4.308 6.023 4.118 5.578-.285 43.493-6.644 55.21-26.324 1.019-1.535 1.456-4.205 1.31-8.01-.145-3.805-1.258-15.431-3.338-34.88-2.035-8.668-6.63-12.877-13.784-12.627a9.033 9.033 0 0 1-3.587-.231c2.914-5.883 4.222-14.67 3.922-26.36-.753-1.29-1.442-2.2-2.066-2.728-4.254 5.331-11.587 6.448-22 3.35-.436 3.794-1.181 6.483-2.234 8.068 1.047 2.014 1.494 4.047 1.343 6.1-.151 2.052-1.01 3.388-2.574 4.007z"/>
                <path fill="url(#h)" d="M23.882 43.344c1.231 6.362-.796 11.383-6.083 15.065C9.87 63.93 4.296 64.566 4.557 87.535c.174 15.313.54 29.088 1.1 41.326.297 2.935 2.305 4.308 6.023 4.118 5.578-.285 43.493-6.644 55.21-26.324 1.019-1.535 1.456-4.205 1.31-8.01-.145-3.805-1.258-15.431-3.338-34.88-2.035-8.668-6.63-12.877-13.784-12.627a9.033 9.033 0 0 1-3.587-.231c-4.458 4.534-12.328 2.013-23.61-7.563z"/>
                <path fill="url(#i)" d="M22.75 53.035c-1.814 2.547-3.464 4.338-4.95 5.374C9.87 63.93 4.295 64.566 4.556 87.535c.174 15.313.54 29.088 1.1 41.326.297 2.935 2.305 4.308 6.023 4.118 5.578-.285 43.493-6.644 55.21-26.324 1.019-1.535 1.456-4.205 1.31-8.01-.145-3.805-1.258-15.431-3.338-34.88-2.035-8.668-6.63-12.877-13.784-12.627a9.033 9.033 0 0 1-3.587-.231c0 5.795-2.049 10.599-6.146 14.413-10.136-2.413-16.334-6.508-18.596-12.285z"/>
                <path fill="url(#j)" d="M39.936 125.445L19.534 57.05c-.74.616-1.319 1.07-1.735 1.359C9.87 63.93.244 65.069.505 88.039c.173 15.312.483 27.595.929 36.847.344 5.395 3.76 8.093 10.246 8.093 5.121 0 16.899-1.84 28.616-6.453l-.36-1.08zm21.84-13.137l-10.698-61.17c7.154-.25 11.749 3.96 13.784 12.628 2.08 19.448 3.193 31.074 3.338 34.88.146 3.804-.291 6.474-1.31 8.01-1.368 2.298-3.037 4.419-4.934 6.372l-.18-.72z"/>
                <path fill="url(#c)" d="M22.211 28.725c1.996-7.578 7.37-14.157 16.123-19.737 8.754-5.58 14.17-3.42 16.247 6.479h.76C54.294 5.577 50.1.429 42.755.025 31.738-.582 21.016 10.035 17.89 26.752l4.32 1.973zM26.632 43.517c3.745 3.633 8.371 5.682 13.878 6.147l-.147 3.421c-6.28-.703-11.99-3.374-17.13-8.014l3.4-1.554z"/>
                <rect width="14.524" height="6.912" x="39.148" y="45.74" fill="url(#b)" rx="3.456" transform="rotate(-27 46.41 49.196)"/>
                <ellipse cx="20.315" cy="35.947" fill="url(#c)" rx="6.905" ry="10.222" transform="rotate(-34 20.315 35.947)"/>
                <ellipse cx="18.826" cy="37.332" fill="url(#b)" rx="4.852" ry="7.85" transform="rotate(-34 18.826 37.332)"/>
            </g>
        </g>
        <g>
            <path stroke="#874BE1" stroke-linecap="round" stroke-width="3" d="M208.086 237.719l98.174 36.36"/>
            <path stroke="#874BE1" stroke-linecap="round" stroke-linejoin="round" stroke-width="3" d="M380.699 205.302l-27.897-10.489L240 249"/>
            <g transform="translate(336.076 186.724)">
                <path fill="#C6E0FD" d="M48.93 15.525L3.595 36.286C.837 37.544.83 41.46 3.583 42.726l93.45 43.047a12.143 12.143 0 0 0 10.12.018l43.15-19.765c2.858-1.304 2.868-5.365.01-6.68l-95.108-43.81a7.53 7.53 0 0 0-6.275-.011" opacity=".3"/>
                <path fill="#C6E0FD" d="M48.17 5.795L1.883 23.007c-2.758 1.258-1.815 8.723.938 9.99l93.45 43.047a12.145 12.145 0 0 0 10.12.019l43.15-19.765c2.858-1.305 4.042-7.834 1.185-9.149L54.444 5.807a7.532 7.532 0 0 0-6.275-.012"/>
                <path fill="#C6E0FD" d="M101.124 74.92c-.24-1.917 2.323-2.226 3.834-3.116L1.884 23.007c-.259.118-.485.29-.68.508-.13.144-.246.308-.349.49-.103.18-.192.378-.27.589a4.82 4.82 0 0 0-.105.327 7.23 7.23 0 0 0-.252 1.86 9.826 9.826 0 0 0 .11 1.626c.14.952.41 1.886.788 2.671.108.225.225.437.35.635.126.197.26.379.402.543.142.164.292.31.45.434.157.125.322.229.494.307l93.45 43.047a12.149 12.149 0 0 0 8.162.714c-1.602.02-3.112-.253-3.31-1.839"/>
                <path fill="#FFFFFE" d="M48.17 1L2.833 21.762c-2.758 1.258-2.765 5.172-.012 6.44l93.45 43.046a12.143 12.143 0 0 0 10.12.019l43.15-19.765c2.858-1.305 2.868-5.366.01-6.681L54.444 1.01a7.53 7.53 0 0 0-6.275-.01"/>
                <ellipse cx="123.66" cy="58.028" fill="#C6E0FD" rx="4.358" ry="2.171"/>
            </g>
            <path fill="url(#b)" d="M57.846 5.763L10.455 27.464a.518.518 0 0 0-.002.943L93.81 66.704c.428.195.916.196 1.338.002l47.07-21.554a.597.597 0 0 0 .006-1.085L58.853 5.765a1.21 1.21 0 0 0-1.007-.002" transform="translate(336.076 186.724)"/>
            <path fill="#91A7C3" d="M371.925 198.07l-9.733 4.456a.407.407 0 1 0 .336.741l9.733-4.457a.407.407 0 1 0-.336-.74M360.148 204.183a.776.776 0 0 0-.36-.335 1.55 1.55 0 0 0-.682-.146c-.403 0-.748.131-.934.33a.5.5 0 0 0-.148.343c0 .047.007.093.021.137.1.31.53.536 1.06.536.611 0 1.084-.296 1.084-.673a.495.495 0 0 0-.04-.192M365.9 198.967a.485.485 0 0 0-.235-.22 1.033 1.033 0 0 0-.447-.095c-.264 0-.493.086-.615.216a.33.33 0 0 0-.097.225l.015.091c.066.203.346.351.697.351.397 0 .712-.194.712-.442l-.03-.126M460.418 252.045v1.223c0 .195.198.325.38.244l5.894-2.73a.272.272 0 0 0 .153-.245v-1.196a.268.268 0 0 0-.376-.246l-5.812 2.578a.402.402 0 0 0-.24.372M476.898 245.217c0 .49-.28.994-.626 1.122-.346.13-.625-.164-.625-.655s.28-.994.625-1.123c.346-.128.626.165.626.656M479.298 244.139c0 .49-.285.993-.63 1.122-.347.129-.626-.164-.626-.655s.28-.994.625-1.123c.346-.129.63.164.63.656M481.693 243.06c0 .491-.28.994-.626 1.123-.35.129-.63-.164-.63-.656 0-.49.28-.993.63-1.122.346-.129.626.164.626.656M484.088 241.982c0 .491-.28.994-.626 1.123-.345.129-.625-.165-.625-.656 0-.49.28-.994.625-1.122.346-.13.626.164.626.655"/>
            <path fill="#746C68" d="M437.429 263.882c-1.734 0-3.468-.372-5.08-1.114l-93.451-43.046-.015-.007.015.007 93.45 43.046c.016.006.026.012.042.017 1.601.731 3.32 1.096 5.039 1.097m-98.551-44.17c-.003 0-.006-.002-.01-.004l.01.004m-.016-.007l-.008-.004.008.004m-.015-.007l-.009-.005.009.005m-.016-.008l-.007-.004.007.004m-.034-.018c-.004-.001-.006-.003-.009-.005l.008.005m-.016-.009l-.007-.003c.003 0 .005.002.007.003m-.014-.007l-.007-.004.007.004m-.015-.008l-.007-.004.007.004M338.722 219.63l-.007-.004.007.004M338.685 219.61l-.005-.004a.034.034 0 0 1 .005.004m-.014-.01c-.002 0-.003 0-.005-.002.002 0 .003.002.005.003m-.015-.009l-.003-.002.003.002"/>
            <path fill="#91C8F1" d="M437.424 263.88a12.11 12.11 0 0 1-5.034-1.095c-.016-.005-.026-.011-.041-.017l-93.451-43.046-.015-.007a.055.055 0 0 1-.005-.003c-.003 0-.006-.002-.01-.004l-.006-.003-.008-.004-.007-.003-.009-.005a.046.046 0 0 1-.007-.003l-.007-.004a.046.046 0 0 0-.007-.003.082.082 0 0 0-.01-.005l-.01-.006c-.004-.001-.006-.003-.009-.005l-.008-.004-.007-.003a.056.056 0 0 0-.007-.004l-.007-.004-.008-.004-.007-.004-.008-.004a.032.032 0 0 0-.007-.005l-.007-.004-.007-.004a.232.232 0 0 0-.021-.012.077.077 0 0 0-.009-.005l-.005-.004a.05.05 0 0 1-.009-.005.016.016 0 0 1-.005-.003l-.01-.006a.03.03 0 0 0-.003-.002l-.011-.007c-1.044-.653-1.792-2.215-2.132-3.916.441.967 1.041 1.733 1.768 2.068l6.188 2.85v.372c0 .309.18.59.46.719l2.587 1.192a.293.293 0 0 0 .414-.265v-.423l7.525 3.465v.464c0 .32.185.61.476.743l7.22 3.325a.59.59 0 0 0 .25.056.607.607 0 0 0 .605-.603v-.047l1.154.532v.513c0 .32.183.61.473.743l7.22 3.325a.602.602 0 0 0 .854-.547v-.096l58.716 27.044a12.19 12.19 0 0 0 4.927 1.12c.443 1.04 1.678 1.266 3 1.266h.163c-1.012.264-2.05.397-3.086.397"/>
            <path fill="#91A7C3" d="M355.452 224.987v1.122c0 .32.185.61.476.743l7.22 3.325a.603.603 0 0 0 .855-.547v-1.26a.603.603 0 0 0-.351-.547l-7.346-3.383a.602.602 0 0 0-.854.547M365.157 229.506v1.122c0 .32.183.61.473.743l7.22 3.325a.603.603 0 0 0 .855-.546v-1.26a.603.603 0 0 0-.351-.548l-7.343-3.382a.601.601 0 0 0-.854.546M344.466 219.854v1.103c0 .309.18.59.46.719l2.587 1.192a.292.292 0 0 0 .415-.265v-1.424a.292.292 0 0 0-.17-.265l-2.878-1.326a.292.292 0 0 0-.414.266"/>
            <g>
                <g opacity=".96" transform="translate(368.801 125.09)">
                    <use fill="#000" filter="url(#k)" xlink:href="#l"/>
                    <use fill="#FFF" xlink:href="#l"/>
                    <path stroke="#F3F4F6" stroke-width="1.25" d="M16.267 82.266l5.338-11.121 64.108-30.807c.444-.213.859-.941.859-1.563V1.185c0-.425-.098-.502-.318-.397L2.142 41.208c-.444.213-.859.941-.859 1.563v37.59c0 .425.098.502.317.397l10.345-4.971 3.657 6.5a.375.375 0 0 0 .665-.021z"/>
                </g>
                <path fill="#AE7CFE" d="M403.408 161.794l29.036-13.786v4.312l-29.036 13.786z"/>
                <path fill="#D6EEFF" d="M403.408 169.61l41.951-19.919v2.157l-41.95 19.918zM403.408 173.383l30.884-14.664v2.156l-30.884 14.664zM403.408 177.156l30.884-14.664v2.156l-30.884 14.664z"/>
                <path fill="url(#m)" d="M10.848 43.337c5.727-2.72 10.37-10.354 10.37-17.052s-4.643-9.923-10.37-7.204C5.12 21.8.478 29.434.478 36.132c0 6.698 4.643 9.924 10.37 7.205z" transform="translate(377.582 147.594)"/>
                <path fill="#FEFEFE" fill-rule="nonzero" d="M388.32 180.53c1.458-.691 2.784-3.736 2.784-6.386 0-2.3-1.014-3.136-2.784-2.296-1.769.84-2.784 2.64-2.784 4.94 0 2.65 1.327 4.434 2.784 3.742z"/>
                <path fill="#FEFEFE" fill-rule="nonzero" d="M393.75 179.805c-.792-.183-2.454-.547-3.455-.625-.492.92-1.209 1.674-1.975 2.074-.767.327-1.486.254-1.979-.203-1.007 1.03-2.664 2.975-3.454 3.911-.276.328-.444.76-.444 1.137v.648c0 .532.33.83.778.701a35.967 35.967 0 0 0 5.1-1.853 46.493 46.493 0 0 0 5.099-2.989c.449-.298.778-.909.778-1.44v-.645c0-.38-.17-.652-.447-.716z"/>
            </g>
            <g>
                <g transform="translate(278.626 256.537)">
                    <path fill="#C6E0FD" d="M48.93 15.525L3.595 36.286C.837 37.544.83 41.46 3.583 42.726l93.45 43.047a12.143 12.143 0 0 0 10.12.018l43.15-19.765c2.858-1.304 2.868-5.365.01-6.68l-95.108-43.81a7.53 7.53 0 0 0-6.275-.011" opacity=".3"/>
                    <path fill="#C6E0FD" d="M48.17 5.795L1.883 23.007c-2.758 1.258-1.815 8.723.938 9.99l93.45 43.047a12.145 12.145 0 0 0 10.12.019l43.15-19.765c2.858-1.305 4.042-7.834 1.185-9.149L54.444 5.807a7.532 7.532 0 0 0-6.275-.012"/>
                    <path fill="#C6E0FD" d="M101.124 74.92c-.24-1.917 2.323-2.226 3.834-3.116L1.884 23.007c-.259.118-.485.29-.68.508-.13.144-.246.308-.349.49-.103.18-.192.378-.27.589a4.82 4.82 0 0 0-.105.327 7.23 7.23 0 0 0-.252 1.86 9.826 9.826 0 0 0 .11 1.626c.14.952.41 1.886.788 2.671.108.225.225.437.35.635.126.197.26.379.402.543.142.164.292.31.45.434.157.125.322.229.494.307l93.45 43.047a12.149 12.149 0 0 0 8.162.714c-1.602.02-3.112-.253-3.31-1.839"/>
                    <path fill="#FFFFFE" d="M48.17 1L2.833 21.762c-2.758 1.258-2.765 5.172-.012 6.44l93.45 43.046a12.143 12.143 0 0 0 10.12.019l43.15-19.765c2.858-1.305 2.868-5.366.01-6.681L54.444 1.01a7.53 7.53 0 0 0-6.275-.01"/>
                    <ellipse cx="123.66" cy="58.028" fill="#C6E0FD" rx="4.358" ry="2.171"/>
                </g>
                <path fill="url(#b)" d="M57.846 5.763L10.455 27.464a.518.518 0 0 0-.002.943L93.81 66.704c.428.195.916.196 1.338.002l47.07-21.554a.597.597 0 0 0 .006-1.085L58.853 5.765a1.21 1.21 0 0 0-1.007-.002" transform="translate(278.626 256.537)"/>
                <path fill="#91A7C3" d="M314.475 267.882l-9.733 4.457a.407.407 0 1 0 .336.741l9.732-4.457a.407.407 0 1 0-.335-.74M302.698 273.996a.776.776 0 0 0-.361-.335 1.55 1.55 0 0 0-.681-.146c-.403 0-.748.131-.934.33a.5.5 0 0 0-.148.343c0 .047.007.093.02.137.1.31.531.536 1.062.536.61 0 1.083-.296 1.083-.673a.495.495 0 0 0-.041-.192M308.449 268.78a.485.485 0 0 0-.234-.22 1.033 1.033 0 0 0-.447-.095c-.265 0-.494.086-.616.216a.33.33 0 0 0-.096.225l.015.091c.066.203.346.351.697.351.396 0 .712-.194.712-.442l-.031-.126M402.967 321.858v1.223c0 .195.199.325.382.244l5.893-2.73a.272.272 0 0 0 .153-.245v-1.196a.268.268 0 0 0-.377-.246l-5.812 2.578a.402.402 0 0 0-.239.372M419.447 315.03c0 .49-.28.994-.625 1.122-.346.13-.625-.164-.625-.655s.28-.994.625-1.123c.346-.128.625.165.625.656M421.847 313.952c0 .49-.284.993-.63 1.122-.346.129-.625-.164-.625-.655s.28-.994.625-1.123c.346-.129.63.164.63.656M424.242 312.874c0 .49-.28.993-.625 1.122-.35.129-.63-.164-.63-.656 0-.49.28-.993.63-1.122.346-.129.625.164.625.656M426.637 311.795c0 .491-.28.994-.625 1.123-.346.129-.625-.165-.625-.656 0-.49.28-.994.625-1.122.346-.13.625.164.625.655"/>
                <path fill="#746C68" d="M379.978 333.695c-1.734 0-3.468-.372-5.08-1.114l-93.45-43.046-.015-.007.015.007 93.45 43.046c.016.006.026.012.041.017 1.602.731 3.32 1.096 5.04 1.097m-98.552-44.17c-.003 0-.006-.002-.009-.004l.01.004m-.016-.007l-.009-.004.009.004m-.016-.007l-.008-.005.008.005m-.015-.008l-.008-.004.008.004m-.035-.018l-.008-.004.008.004m-.016-.009l-.007-.003c.003 0 .005.002.007.003m-.015-.007l-.007-.004.007.004m-.014-.008l-.007-.004.007.004M281.272 289.444l-.007-.004.007.004M281.235 289.423l-.005-.003a.034.034 0 0 1 .005.003m-.015-.01c-.001 0-.003 0-.004-.002l.004.003m-.014-.009l-.003-.002.003.002"/>
                <path fill="#91C8F1" d="M379.973 333.693a12.11 12.11 0 0 1-5.034-1.095c-.015-.005-.025-.011-.04-.017l-93.451-43.046-.015-.007a.055.055 0 0 1-.006-.003c-.003 0-.006-.002-.009-.004l-.006-.003-.009-.004-.007-.003-.008-.005a.046.046 0 0 1-.007-.003l-.008-.004a.046.046 0 0 0-.007-.003.082.082 0 0 0-.009-.005l-.011-.006-.008-.004-.008-.005-.007-.003a.056.056 0 0 0-.008-.004l-.007-.004-.007-.004-.007-.004-.008-.004a.032.032 0 0 0-.007-.005l-.007-.004-.007-.004a.232.232 0 0 0-.021-.012.077.077 0 0 0-.009-.005l-.005-.003a.05.05 0 0 1-.01-.006.016.016 0 0 1-.004-.003l-.01-.006a.03.03 0 0 0-.003-.002l-.012-.007c-1.043-.653-1.792-2.215-2.132-3.916.442.967 1.042 1.733 1.769 2.068l6.188 2.85v.372c0 .309.18.59.46.719l2.587 1.192a.293.293 0 0 0 .414-.265v-.423l7.525 3.465v.464c0 .32.185.61.476.743l7.22 3.326a.59.59 0 0 0 .25.055.607.607 0 0 0 .604-.603v-.047l1.155.532v.513c0 .32.183.61.473.743l7.22 3.325a.602.602 0 0 0 .854-.547v-.096l58.716 27.044a12.19 12.19 0 0 0 4.927 1.12c.442 1.04 1.678 1.266 3 1.266h.163c-1.012.264-2.05.397-3.087.397"/>
                <path fill="#91A7C3" d="M298.002 294.8v1.122c0 .32.185.61.476.743l7.22 3.326a.603.603 0 0 0 .854-.548v-1.26a.603.603 0 0 0-.35-.547l-7.346-3.383a.602.602 0 0 0-.854.547M307.707 299.32v1.121c0 .32.183.61.473.743l7.22 3.325a.603.603 0 0 0 .854-.546v-1.26a.603.603 0 0 0-.35-.548l-7.343-3.382a.601.601 0 0 0-.854.546M287.016 289.667v1.103c0 .309.18.59.46.719l2.587 1.192a.292.292 0 0 0 .414-.265v-1.424a.292.292 0 0 0-.17-.265l-2.877-1.326a.292.292 0 0 0-.414.266"/>
                <g>
                    <g opacity=".96" transform="translate(311.35 194.902)">
                        <use fill="#000" filter="url(#n)" xlink:href="#o"/>
                        <use fill="#FFF" xlink:href="#o"/>
                        <path stroke="#F3F4F6" stroke-width="1.25" d="M16.267 82.266l5.338-11.121 64.108-30.807c.444-.213.859-.941.859-1.563V1.185c0-.425-.098-.502-.318-.397L2.142 41.208c-.444.213-.859.941-.859 1.563v37.59c0 .425.098.502.317.397l10.345-4.971 3.657 6.5a.375.375 0 0 0 .665-.021z"/>
                    </g>
                    <path fill="#AE7CFE" d="M345.958 231.607l29.035-13.786v4.312l-29.035 13.786z"/>
                    <path fill="#D6EEFF" d="M345.958 239.423l41.951-19.919v2.157l-41.951 19.918zM345.958 243.196l30.884-14.664v2.156l-30.884 14.664zM345.958 246.969l30.884-14.664v2.156l-30.884 14.664z"/>
                    <path fill="url(#m)" d="M10.848 43.337c5.727-2.72 10.37-10.354 10.37-17.052s-4.643-9.923-10.37-7.204C5.12 21.8.478 29.434.478 36.132c0 6.698 4.643 9.924 10.37 7.205z" transform="translate(320.132 217.407)"/>
                    <path fill="#FEFEFE" fill-rule="nonzero" d="M330.87 250.343c1.457-.691 2.784-3.735 2.784-6.386 0-2.3-1.014-3.136-2.784-2.296-1.77.84-2.784 2.64-2.784 4.94 0 2.65 1.327 4.434 2.784 3.742z"/>
                    <path fill="#FEFEFE" fill-rule="nonzero" d="M336.3 249.618c-.792-.183-2.454-.547-3.455-.625-.492.92-1.21 1.674-1.975 2.074-.768.327-1.487.254-1.979-.203-1.007 1.03-2.665 2.975-3.454 3.911-.276.328-.445.76-.444 1.137v.648c0 .532.329.83.778.701a35.967 35.967 0 0 0 5.1-1.853 46.493 46.493 0 0 0 5.098-2.989c.45-.298.779-.909.778-1.44v-.645c0-.38-.169-.652-.447-.716z"/>
                </g>
            </g>
        </g>
        <g>
            <path fill="#C6E0FD" d="M58.867 353.43c-2.956 1.059-3.076 3.228-.266 4.847l145.223 63.69c2.809 1.619 7.486 2.07 10.439 1.012l85.567-42.643c2.956-1.06 3.091-3.26.302-4.913l-143.164-64.274c-2.789-1.653-7.448-2.135-10.402-1.078l-87.7 43.36z" opacity=".3"/>
            <path stroke="#874BE1" stroke-linecap="round" stroke-linejoin="round" stroke-width="3" d="M101 324L2 282l103.188-51.332"/>
            <path fill="#91C8F1" d="M57.666 333.897c-1.558.558-1.128 5.468-1.096 6.4.03.836.703 1.724 2.03 2.49l145.224 63.689c2.809 1.618 7.486 2.07 10.439 1.012l85.567-42.643c1.615-.58 2.388-1.499 2.302-2.483-.071-.818.163-5.998-1.102-6.748l-144.062-59.956c-2.789-1.654-7.448-2.136-10.402-1.078l-88.9 39.317z"/>
            <path fill="url(#p)" d="M56.867 103.085c-2.956 1.058-3.076 3.227-.266 4.846l145.223 63.69c2.809 1.619 7.486 2.07 10.439 1.012l85.567-42.643c2.956-1.06 3.091-3.26.302-4.913L154.968 60.803c-2.789-1.653-7.448-2.135-10.402-1.078l-87.7 43.36z" transform="translate(2 230)"/>
            <path fill="#C6E0FD" d="M124.832 316.305l91.978 41.619 22.163-11.39-91.978-40.483z"/>
            <path fill="#CFEAFE" d="M124.832 306.595l91.649 41.261 22.492-11.03v-3.72l-22.163 11.467-91.978-41.619z"/>
            <path fill="#91C8F1" d="M216.48 347.856l22.493-11.03v-3.72l-22.163 11.467z"/>
            <path fill="#FFF" d="M124.832 302.954l91.978 41.619 22.163-11.389-91.978-40.483z"/>
            <path fill="url(#c)" d="M168.694 73.913l-18.51 9.763-22.492-9.749V50.788l22.163 10.204 18.839-10.14z" transform="translate(2 230)"/>
            <path fill="url(#a)" d="M150.184 83.676l-22.492-9.749V50.788l22.163 10.204z" transform="translate(2 230)"/>
            <path fill="#8349DF" d="M170.694 280.853l-18.84 10.139-22.162-10.125 18.838-9.004z"/>
            <path fill="url(#c)" d="M196.398 86.061l-18.51 9.763-22.492-9.749V47.158l22.163 10.204 18.839-10.14z" transform="translate(2 230)"/>
            <path fill="url(#a)" d="M177.888 95.824l-22.492-9.749V47.158l22.163 10.204z" transform="translate(2 230)"/>
            <path fill="#8349DF" d="M198.398 277.223l-18.839 10.139-22.163-10.126 18.839-9.004z"/>
            <path fill="url(#b)" d="M205.592 107.972L183.1 98.223V32.604l22.163 10.204z" transform="translate(2 230)"/>
            <g fill="url(#b)" opacity=".8" transform="translate(185 253)">
                <path d="M41.102 76.559l-18.51 8.413L.1 75.223V9.604l22.163 10.204L41.103 9.67z"/>
                <path d="M41.102 9.67L22.263 19.807.1 9.683 18.939.679z"/>
            </g>
            <path fill="#C6E0FD" d="M93.803 332.359l91.978 41.619 22.163-11.389-91.978-40.483z"/>
            <path fill="#CFEAFE" d="M93.803 322.65l91.649 41.26 22.492-11.03v-3.72l-22.163 11.467-91.978-41.619z"/>
            <path fill="#91C8F1" d="M185.452 363.91l22.492-11.03v-3.72l-22.163 11.467z"/>
            <path fill="#FFF" d="M93.803 319.008l91.978 41.619 22.163-11.389-91.978-40.483z"/>
            <path fill="url(#c)" d="M136.668 90.49l-18.77 8.744L96 88.976v-3.6l21.898 10.26 18.77-10.662z" transform="translate(2 230)"/>
            <path fill="url(#a)" d="M117.898 99.234L96 88.976v-3.6l21.898 10.26z" transform="translate(2 230)"/>
            <path fill="#8349DF" d="M139.2 315.63l-19.302 10.005L98 315.377l19.037-8.737z"/>
            <path fill="url(#c)" d="M164.372 102.638l-18.51 9.763-22.492-9.75V81.407l22.438 9.343 18.564-9.304z" transform="translate(2 230)"/>
            <path fill="url(#a)" d="M145.862 112.4l-22.492-9.748V81.406l22.438 9.343z" transform="translate(2 230)"/>
            <path fill="#8349DF" d="M166.372 311.445l-18.564 9.304-22.435-9.343 18.762-9.345z"/>
            <g fill="url(#b)" opacity=".9" transform="translate(152 288)">
                <path d="M42.076 58.135l-18.51 8.414-22.492-9.75V8.726l21.832 9.998L41.383 8.485z"/>
                <path d="M23.566 66.549l-22.492-9.75-.34-48.193 22.172 10.117zM41.383 8.485L22.906 18.723.735 8.606 20.466.072z"/>
            </g>
            <path fill="#C6E0FD" d="M223.459 360.552l18.838 9.065 22.164-11.388-18.84-7.93z"/>
            <path fill="url(#a)" d="M221.459 120.842l18.838 8.483 22.164-10.806v-3.72l-22.164 11.467-18.838-9.065z" transform="translate(2 230)"/>
            <path fill="url(#c)" d="M240.297 129.325l22.164-10.806v-3.72l-22.164 11.467z" transform="translate(2 230)"/>
            <path fill="#8349DF" d="M223.459 347.201l18.838 9.065 22.164-11.388-18.84-7.93z"/>
            <path fill="#C6E0FD" d="M192.43 376.606l18.839 9.065 22.163-11.388-18.839-7.93z"/>
            <path fill="url(#a)" d="M190.43 136.896l18.839 8.286 22.163-10.609v-3.72l-22.163 11.468-18.84-9.066z" transform="translate(2 230)"/>
            <path fill="url(#c)" d="M209.269 145.182l22.163-10.609v-3.72l-22.163 11.468z" transform="translate(2 230)"/>
            <path fill="#8349DF" d="M192.43 363.255l18.839 9.066 22.163-11.39-18.839-7.93z"/>
        </g>
    </g>
</svg>
